<mxfile host="app.diagrams.net" modified="2023-04-10T18:24:38.679Z" agent="Mozilla/5.0 (Windows NT 10.0; Win64; x64) AppleWebKit/537.36 (KHTML, like Gecko) Chrome/110.0.0.0 Safari/537.36 OPR/96.0.0.0" etag="g7Fq7QrVo52VOAL9X2rp" version="21.1.5" type="device">
  <diagram id="QoG1fPniIDF2Xl-bPp8m" name="Page-1">
    <mxGraphModel dx="2014" dy="1816" grid="1" gridSize="10" guides="1" tooltips="1" connect="1" arrows="1" fold="1" page="1" pageScale="1" pageWidth="827" pageHeight="1169" math="0" shadow="0">
      <root>
        <mxCell id="0" />
        <mxCell id="1" parent="0" />
        <mxCell id="kD8ch3ms91q4ZZ0owqxC-380" value="" style="ellipse;whiteSpace=wrap;html=1;fillColor=#f8cecc;strokeColor=#b85450;" parent="1" vertex="1">
          <mxGeometry x="70" y="-200" width="100" height="80" as="geometry" />
        </mxCell>
        <mxCell id="kD8ch3ms91q4ZZ0owqxC-379" value="" style="ellipse;whiteSpace=wrap;html=1;fontColor=#FF3333;" parent="1" vertex="1">
          <mxGeometry x="180" y="-200" width="160" height="80" as="geometry" />
        </mxCell>
        <mxCell id="kD8ch3ms91q4ZZ0owqxC-378" value="" style="ellipse;whiteSpace=wrap;html=1;fontColor=#FF3333;" parent="1" vertex="1">
          <mxGeometry x="990" y="800" width="140" height="80" as="geometry" />
        </mxCell>
        <mxCell id="kD8ch3ms91q4ZZ0owqxC-377" value="" style="ellipse;whiteSpace=wrap;html=1;fillColor=#f8cecc;strokeColor=#b85450;" parent="1" vertex="1">
          <mxGeometry x="1140" y="800" width="120" height="80" as="geometry" />
        </mxCell>
        <mxCell id="kD8ch3ms91q4ZZ0owqxC-376" value="" style="ellipse;whiteSpace=wrap;html=1;fillColor=#f8cecc;strokeColor=#b85450;" parent="1" vertex="1">
          <mxGeometry x="1210" y="315" width="100" height="80" as="geometry" />
        </mxCell>
        <mxCell id="kD8ch3ms91q4ZZ0owqxC-374" value="" style="ellipse;whiteSpace=wrap;html=1;fillColor=#dae8fc;strokeColor=#6c8ebf;" parent="1" vertex="1">
          <mxGeometry x="1210" y="5" width="101" height="85" as="geometry" />
        </mxCell>
        <mxCell id="kD8ch3ms91q4ZZ0owqxC-292" value="" style="ellipse;whiteSpace=wrap;html=1;" parent="1" vertex="1">
          <mxGeometry x="910" y="170" width="100" height="70" as="geometry" />
        </mxCell>
        <mxCell id="kD8ch3ms91q4ZZ0owqxC-291" value="" style="ellipse;whiteSpace=wrap;html=1;" parent="1" vertex="1">
          <mxGeometry x="790" y="170" width="100" height="70" as="geometry" />
        </mxCell>
        <mxCell id="kD8ch3ms91q4ZZ0owqxC-290" value="" style="ellipse;whiteSpace=wrap;html=1;" parent="1" vertex="1">
          <mxGeometry x="670" y="170" width="100" height="70" as="geometry" />
        </mxCell>
        <mxCell id="kD8ch3ms91q4ZZ0owqxC-289" value="" style="ellipse;whiteSpace=wrap;html=1;" parent="1" vertex="1">
          <mxGeometry x="510" y="170" width="100" height="70" as="geometry" />
        </mxCell>
        <mxCell id="kD8ch3ms91q4ZZ0owqxC-288" value="" style="ellipse;whiteSpace=wrap;html=1;" parent="1" vertex="1">
          <mxGeometry x="190" y="170" width="100" height="70" as="geometry" />
        </mxCell>
        <mxCell id="kD8ch3ms91q4ZZ0owqxC-287" value="" style="ellipse;whiteSpace=wrap;html=1;" parent="1" vertex="1">
          <mxGeometry x="310" y="170" width="100" height="70" as="geometry" />
        </mxCell>
        <mxCell id="kD8ch3ms91q4ZZ0owqxC-1" value="" style="ellipse;whiteSpace=wrap;html=1;aspect=fixed;" parent="1" vertex="1">
          <mxGeometry x="90" y="10" width="20" height="20" as="geometry" />
        </mxCell>
        <mxCell id="kD8ch3ms91q4ZZ0owqxC-3" value="" style="endArrow=none;html=1;rounded=0;entryX=0.5;entryY=1;entryDx=0;entryDy=0;" parent="1" target="kD8ch3ms91q4ZZ0owqxC-1" edge="1">
          <mxGeometry width="50" height="50" relative="1" as="geometry">
            <mxPoint x="100" y="70" as="sourcePoint" />
            <mxPoint x="450" y="120" as="targetPoint" />
          </mxGeometry>
        </mxCell>
        <mxCell id="kD8ch3ms91q4ZZ0owqxC-5" value="" style="rounded=0;whiteSpace=wrap;html=1;" parent="1" vertex="1">
          <mxGeometry x="90" y="70" width="20" height="60" as="geometry" />
        </mxCell>
        <mxCell id="kD8ch3ms91q4ZZ0owqxC-6" value="" style="ellipse;whiteSpace=wrap;html=1;aspect=fixed;" parent="1" vertex="1">
          <mxGeometry x="130" y="10" width="20" height="20" as="geometry" />
        </mxCell>
        <mxCell id="kD8ch3ms91q4ZZ0owqxC-7" value="" style="endArrow=none;html=1;rounded=0;entryX=0.5;entryY=1;entryDx=0;entryDy=0;" parent="1" target="kD8ch3ms91q4ZZ0owqxC-6" edge="1">
          <mxGeometry width="50" height="50" relative="1" as="geometry">
            <mxPoint x="140" y="70" as="sourcePoint" />
            <mxPoint x="490" y="120" as="targetPoint" />
          </mxGeometry>
        </mxCell>
        <mxCell id="kD8ch3ms91q4ZZ0owqxC-8" value="" style="rounded=0;whiteSpace=wrap;html=1;" parent="1" vertex="1">
          <mxGeometry x="130" y="70" width="20" height="60" as="geometry" />
        </mxCell>
        <mxCell id="kD8ch3ms91q4ZZ0owqxC-9" value="" style="ellipse;whiteSpace=wrap;html=1;aspect=fixed;" parent="1" vertex="1">
          <mxGeometry x="210" y="10" width="20" height="20" as="geometry" />
        </mxCell>
        <mxCell id="kD8ch3ms91q4ZZ0owqxC-10" value="" style="endArrow=none;html=1;rounded=0;entryX=0.5;entryY=1;entryDx=0;entryDy=0;" parent="1" target="kD8ch3ms91q4ZZ0owqxC-9" edge="1">
          <mxGeometry width="50" height="50" relative="1" as="geometry">
            <mxPoint x="220" y="70" as="sourcePoint" />
            <mxPoint x="570" y="120" as="targetPoint" />
          </mxGeometry>
        </mxCell>
        <mxCell id="kD8ch3ms91q4ZZ0owqxC-11" value="" style="rounded=0;whiteSpace=wrap;html=1;" parent="1" vertex="1">
          <mxGeometry x="210" y="70" width="20" height="60" as="geometry" />
        </mxCell>
        <mxCell id="kD8ch3ms91q4ZZ0owqxC-12" value="" style="ellipse;whiteSpace=wrap;html=1;aspect=fixed;" parent="1" vertex="1">
          <mxGeometry x="250" y="10" width="20" height="20" as="geometry" />
        </mxCell>
        <mxCell id="kD8ch3ms91q4ZZ0owqxC-13" value="" style="endArrow=none;html=1;rounded=0;entryX=0.5;entryY=1;entryDx=0;entryDy=0;" parent="1" target="kD8ch3ms91q4ZZ0owqxC-12" edge="1">
          <mxGeometry width="50" height="50" relative="1" as="geometry">
            <mxPoint x="260" y="70" as="sourcePoint" />
            <mxPoint x="610" y="120" as="targetPoint" />
          </mxGeometry>
        </mxCell>
        <mxCell id="kD8ch3ms91q4ZZ0owqxC-14" value="" style="rounded=0;whiteSpace=wrap;html=1;" parent="1" vertex="1">
          <mxGeometry x="250" y="70" width="20" height="60" as="geometry" />
        </mxCell>
        <mxCell id="kD8ch3ms91q4ZZ0owqxC-15" value="" style="ellipse;whiteSpace=wrap;html=1;aspect=fixed;" parent="1" vertex="1">
          <mxGeometry x="330" y="10" width="20" height="20" as="geometry" />
        </mxCell>
        <mxCell id="kD8ch3ms91q4ZZ0owqxC-16" value="" style="endArrow=none;html=1;rounded=0;entryX=0.5;entryY=1;entryDx=0;entryDy=0;" parent="1" target="kD8ch3ms91q4ZZ0owqxC-15" edge="1">
          <mxGeometry width="50" height="50" relative="1" as="geometry">
            <mxPoint x="340" y="70" as="sourcePoint" />
            <mxPoint x="690" y="120" as="targetPoint" />
          </mxGeometry>
        </mxCell>
        <mxCell id="kD8ch3ms91q4ZZ0owqxC-17" value="" style="rounded=0;whiteSpace=wrap;html=1;" parent="1" vertex="1">
          <mxGeometry x="330" y="70" width="20" height="60" as="geometry" />
        </mxCell>
        <mxCell id="kD8ch3ms91q4ZZ0owqxC-18" value="" style="ellipse;whiteSpace=wrap;html=1;aspect=fixed;" parent="1" vertex="1">
          <mxGeometry x="370" y="10" width="20" height="20" as="geometry" />
        </mxCell>
        <mxCell id="kD8ch3ms91q4ZZ0owqxC-19" value="" style="endArrow=none;html=1;rounded=0;entryX=0.5;entryY=1;entryDx=0;entryDy=0;" parent="1" target="kD8ch3ms91q4ZZ0owqxC-18" edge="1">
          <mxGeometry width="50" height="50" relative="1" as="geometry">
            <mxPoint x="380" y="70" as="sourcePoint" />
            <mxPoint x="730" y="120" as="targetPoint" />
          </mxGeometry>
        </mxCell>
        <mxCell id="kD8ch3ms91q4ZZ0owqxC-20" value="" style="rounded=0;whiteSpace=wrap;html=1;" parent="1" vertex="1">
          <mxGeometry x="370" y="70" width="20" height="60" as="geometry" />
        </mxCell>
        <mxCell id="kD8ch3ms91q4ZZ0owqxC-21" value="" style="ellipse;whiteSpace=wrap;html=1;aspect=fixed;" parent="1" vertex="1">
          <mxGeometry x="530" y="10" width="20" height="20" as="geometry" />
        </mxCell>
        <mxCell id="kD8ch3ms91q4ZZ0owqxC-22" value="" style="endArrow=none;html=1;rounded=0;entryX=0.5;entryY=1;entryDx=0;entryDy=0;" parent="1" target="kD8ch3ms91q4ZZ0owqxC-21" edge="1">
          <mxGeometry width="50" height="50" relative="1" as="geometry">
            <mxPoint x="540" y="70" as="sourcePoint" />
            <mxPoint x="890" y="120" as="targetPoint" />
          </mxGeometry>
        </mxCell>
        <mxCell id="kD8ch3ms91q4ZZ0owqxC-23" value="" style="rounded=0;whiteSpace=wrap;html=1;" parent="1" vertex="1">
          <mxGeometry x="530" y="70" width="20" height="60" as="geometry" />
        </mxCell>
        <mxCell id="kD8ch3ms91q4ZZ0owqxC-24" value="" style="ellipse;whiteSpace=wrap;html=1;aspect=fixed;" parent="1" vertex="1">
          <mxGeometry x="570" y="10" width="20" height="20" as="geometry" />
        </mxCell>
        <mxCell id="kD8ch3ms91q4ZZ0owqxC-25" value="" style="endArrow=none;html=1;rounded=0;entryX=0.5;entryY=1;entryDx=0;entryDy=0;" parent="1" target="kD8ch3ms91q4ZZ0owqxC-24" edge="1">
          <mxGeometry width="50" height="50" relative="1" as="geometry">
            <mxPoint x="580" y="70" as="sourcePoint" />
            <mxPoint x="930" y="120" as="targetPoint" />
          </mxGeometry>
        </mxCell>
        <mxCell id="kD8ch3ms91q4ZZ0owqxC-26" value="" style="rounded=0;whiteSpace=wrap;html=1;" parent="1" vertex="1">
          <mxGeometry x="570" y="70" width="20" height="60" as="geometry" />
        </mxCell>
        <mxCell id="kD8ch3ms91q4ZZ0owqxC-27" value="" style="ellipse;whiteSpace=wrap;html=1;aspect=fixed;" parent="1" vertex="1">
          <mxGeometry x="690" y="10" width="20" height="20" as="geometry" />
        </mxCell>
        <mxCell id="kD8ch3ms91q4ZZ0owqxC-28" value="" style="endArrow=none;html=1;rounded=0;entryX=0.5;entryY=1;entryDx=0;entryDy=0;" parent="1" target="kD8ch3ms91q4ZZ0owqxC-27" edge="1">
          <mxGeometry width="50" height="50" relative="1" as="geometry">
            <mxPoint x="700" y="70" as="sourcePoint" />
            <mxPoint x="1050" y="120" as="targetPoint" />
          </mxGeometry>
        </mxCell>
        <mxCell id="kD8ch3ms91q4ZZ0owqxC-29" value="" style="rounded=0;whiteSpace=wrap;html=1;" parent="1" vertex="1">
          <mxGeometry x="690" y="70" width="20" height="60" as="geometry" />
        </mxCell>
        <mxCell id="kD8ch3ms91q4ZZ0owqxC-30" value="" style="ellipse;whiteSpace=wrap;html=1;aspect=fixed;" parent="1" vertex="1">
          <mxGeometry x="730" y="10" width="20" height="20" as="geometry" />
        </mxCell>
        <mxCell id="kD8ch3ms91q4ZZ0owqxC-31" value="" style="endArrow=none;html=1;rounded=0;entryX=0.5;entryY=1;entryDx=0;entryDy=0;" parent="1" target="kD8ch3ms91q4ZZ0owqxC-30" edge="1">
          <mxGeometry width="50" height="50" relative="1" as="geometry">
            <mxPoint x="740" y="70" as="sourcePoint" />
            <mxPoint x="1090" y="120" as="targetPoint" />
          </mxGeometry>
        </mxCell>
        <mxCell id="kD8ch3ms91q4ZZ0owqxC-32" value="" style="rounded=0;whiteSpace=wrap;html=1;" parent="1" vertex="1">
          <mxGeometry x="730" y="70" width="20" height="60" as="geometry" />
        </mxCell>
        <mxCell id="kD8ch3ms91q4ZZ0owqxC-33" value="" style="ellipse;whiteSpace=wrap;html=1;aspect=fixed;" parent="1" vertex="1">
          <mxGeometry x="810" y="10" width="20" height="20" as="geometry" />
        </mxCell>
        <mxCell id="kD8ch3ms91q4ZZ0owqxC-34" value="" style="endArrow=none;html=1;rounded=0;entryX=0.5;entryY=1;entryDx=0;entryDy=0;" parent="1" target="kD8ch3ms91q4ZZ0owqxC-33" edge="1">
          <mxGeometry width="50" height="50" relative="1" as="geometry">
            <mxPoint x="820" y="70" as="sourcePoint" />
            <mxPoint x="1170" y="120" as="targetPoint" />
          </mxGeometry>
        </mxCell>
        <mxCell id="kD8ch3ms91q4ZZ0owqxC-35" value="" style="rounded=0;whiteSpace=wrap;html=1;" parent="1" vertex="1">
          <mxGeometry x="810" y="70" width="20" height="60" as="geometry" />
        </mxCell>
        <mxCell id="kD8ch3ms91q4ZZ0owqxC-36" value="" style="ellipse;whiteSpace=wrap;html=1;aspect=fixed;" parent="1" vertex="1">
          <mxGeometry x="850" y="10" width="20" height="20" as="geometry" />
        </mxCell>
        <mxCell id="kD8ch3ms91q4ZZ0owqxC-37" value="" style="endArrow=none;html=1;rounded=0;entryX=0.5;entryY=1;entryDx=0;entryDy=0;" parent="1" target="kD8ch3ms91q4ZZ0owqxC-36" edge="1">
          <mxGeometry width="50" height="50" relative="1" as="geometry">
            <mxPoint x="860" y="70" as="sourcePoint" />
            <mxPoint x="1210" y="120" as="targetPoint" />
          </mxGeometry>
        </mxCell>
        <mxCell id="kD8ch3ms91q4ZZ0owqxC-38" value="" style="rounded=0;whiteSpace=wrap;html=1;" parent="1" vertex="1">
          <mxGeometry x="850" y="70" width="20" height="60" as="geometry" />
        </mxCell>
        <mxCell id="kD8ch3ms91q4ZZ0owqxC-39" value="" style="ellipse;whiteSpace=wrap;html=1;aspect=fixed;" parent="1" vertex="1">
          <mxGeometry x="930" y="10" width="20" height="20" as="geometry" />
        </mxCell>
        <mxCell id="kD8ch3ms91q4ZZ0owqxC-40" value="" style="endArrow=none;html=1;rounded=0;entryX=0.5;entryY=1;entryDx=0;entryDy=0;" parent="1" target="kD8ch3ms91q4ZZ0owqxC-39" edge="1">
          <mxGeometry width="50" height="50" relative="1" as="geometry">
            <mxPoint x="940" y="70" as="sourcePoint" />
            <mxPoint x="1290" y="120" as="targetPoint" />
          </mxGeometry>
        </mxCell>
        <mxCell id="kD8ch3ms91q4ZZ0owqxC-41" value="" style="rounded=0;whiteSpace=wrap;html=1;" parent="1" vertex="1">
          <mxGeometry x="930" y="70" width="20" height="60" as="geometry" />
        </mxCell>
        <mxCell id="kD8ch3ms91q4ZZ0owqxC-42" value="" style="ellipse;whiteSpace=wrap;html=1;aspect=fixed;" parent="1" vertex="1">
          <mxGeometry x="970" y="10" width="20" height="20" as="geometry" />
        </mxCell>
        <mxCell id="kD8ch3ms91q4ZZ0owqxC-43" value="" style="endArrow=none;html=1;rounded=0;entryX=0.5;entryY=1;entryDx=0;entryDy=0;" parent="1" target="kD8ch3ms91q4ZZ0owqxC-42" edge="1">
          <mxGeometry width="50" height="50" relative="1" as="geometry">
            <mxPoint x="980" y="70" as="sourcePoint" />
            <mxPoint x="1330" y="120" as="targetPoint" />
          </mxGeometry>
        </mxCell>
        <mxCell id="kD8ch3ms91q4ZZ0owqxC-44" value="" style="rounded=0;whiteSpace=wrap;html=1;" parent="1" vertex="1">
          <mxGeometry x="970" y="70" width="20" height="60" as="geometry" />
        </mxCell>
        <mxCell id="kD8ch3ms91q4ZZ0owqxC-45" value="PF9" style="text;html=1;strokeColor=none;fillColor=none;align=center;verticalAlign=middle;whiteSpace=wrap;rounded=0;" parent="1" vertex="1">
          <mxGeometry x="70" y="-20" width="60" height="30" as="geometry" />
        </mxCell>
        <mxCell id="kD8ch3ms91q4ZZ0owqxC-46" value="PF7" style="text;html=1;strokeColor=none;fillColor=none;align=center;verticalAlign=middle;whiteSpace=wrap;rounded=0;" parent="1" vertex="1">
          <mxGeometry x="110" y="-20" width="60" height="30" as="geometry" />
        </mxCell>
        <mxCell id="kD8ch3ms91q4ZZ0owqxC-48" value="PE3" style="text;html=1;strokeColor=none;fillColor=none;align=center;verticalAlign=middle;whiteSpace=wrap;rounded=0;" parent="1" vertex="1">
          <mxGeometry x="190" y="-20" width="60" height="30" as="geometry" />
        </mxCell>
        <mxCell id="kD8ch3ms91q4ZZ0owqxC-49" value="PE6" style="text;html=1;strokeColor=none;fillColor=none;align=center;verticalAlign=middle;whiteSpace=wrap;rounded=0;" parent="1" vertex="1">
          <mxGeometry x="230" y="-20" width="60" height="30" as="geometry" />
        </mxCell>
        <mxCell id="kD8ch3ms91q4ZZ0owqxC-50" value="PE4" style="text;html=1;strokeColor=none;fillColor=none;align=center;verticalAlign=middle;whiteSpace=wrap;rounded=0;" parent="1" vertex="1">
          <mxGeometry x="310" y="-20" width="60" height="30" as="geometry" />
        </mxCell>
        <mxCell id="kD8ch3ms91q4ZZ0owqxC-51" value="PE2" style="text;html=1;strokeColor=none;fillColor=none;align=center;verticalAlign=middle;whiteSpace=wrap;rounded=0;" parent="1" vertex="1">
          <mxGeometry x="350" y="-20" width="60" height="30" as="geometry" />
        </mxCell>
        <mxCell id="kD8ch3ms91q4ZZ0owqxC-52" value="PD5" style="text;html=1;strokeColor=none;fillColor=none;align=center;verticalAlign=middle;whiteSpace=wrap;rounded=0;" parent="1" vertex="1">
          <mxGeometry x="510" y="-20" width="60" height="30" as="geometry" />
        </mxCell>
        <mxCell id="kD8ch3ms91q4ZZ0owqxC-53" value="PD6" style="text;html=1;strokeColor=none;fillColor=none;align=center;verticalAlign=middle;whiteSpace=wrap;rounded=0;" parent="1" vertex="1">
          <mxGeometry x="550" y="-20" width="60" height="30" as="geometry" />
        </mxCell>
        <mxCell id="kD8ch3ms91q4ZZ0owqxC-54" value="PG3" style="text;html=1;strokeColor=none;fillColor=none;align=center;verticalAlign=middle;whiteSpace=wrap;rounded=0;" parent="1" vertex="1">
          <mxGeometry x="670" y="-20" width="60" height="30" as="geometry" />
        </mxCell>
        <mxCell id="kD8ch3ms91q4ZZ0owqxC-55" value="PG2" style="text;html=1;strokeColor=none;fillColor=none;align=center;verticalAlign=middle;whiteSpace=wrap;rounded=0;" parent="1" vertex="1">
          <mxGeometry x="710" y="-20" width="60" height="30" as="geometry" />
        </mxCell>
        <mxCell id="kD8ch3ms91q4ZZ0owqxC-56" value="PC12" style="text;html=1;strokeColor=none;fillColor=none;align=center;verticalAlign=middle;whiteSpace=wrap;rounded=0;" parent="1" vertex="1">
          <mxGeometry x="790" y="-20" width="60" height="30" as="geometry" />
        </mxCell>
        <mxCell id="kD8ch3ms91q4ZZ0owqxC-57" value="PC11" style="text;html=1;strokeColor=none;fillColor=none;align=center;verticalAlign=middle;whiteSpace=wrap;rounded=0;" parent="1" vertex="1">
          <mxGeometry x="830" y="-20" width="60" height="30" as="geometry" />
        </mxCell>
        <mxCell id="kD8ch3ms91q4ZZ0owqxC-58" value="PC9" style="text;html=1;strokeColor=none;fillColor=none;align=center;verticalAlign=middle;whiteSpace=wrap;rounded=0;" parent="1" vertex="1">
          <mxGeometry x="910" y="-20" width="60" height="30" as="geometry" />
        </mxCell>
        <mxCell id="kD8ch3ms91q4ZZ0owqxC-59" value="PC8" style="text;html=1;strokeColor=none;fillColor=none;align=center;verticalAlign=middle;whiteSpace=wrap;rounded=0;" parent="1" vertex="1">
          <mxGeometry x="950" y="-20" width="60" height="30" as="geometry" />
        </mxCell>
        <mxCell id="kD8ch3ms91q4ZZ0owqxC-60" value="" style="triangle;whiteSpace=wrap;html=1;rotation=90;fillColor=#d5e8d4;strokeColor=#82b366;" parent="1" vertex="1">
          <mxGeometry x="85" y="190" width="30" height="30" as="geometry" />
        </mxCell>
        <mxCell id="kD8ch3ms91q4ZZ0owqxC-61" value="" style="triangle;whiteSpace=wrap;html=1;rotation=90;fillColor=#d5e8d4;strokeColor=#82b366;" parent="1" vertex="1">
          <mxGeometry x="125" y="190" width="30" height="30" as="geometry" />
        </mxCell>
        <mxCell id="kD8ch3ms91q4ZZ0owqxC-62" value="" style="endArrow=none;html=1;rounded=0;fillColor=#d5e8d4;strokeColor=#82b366;" parent="1" edge="1">
          <mxGeometry width="50" height="50" relative="1" as="geometry">
            <mxPoint x="80" y="220" as="sourcePoint" />
            <mxPoint x="120" y="220" as="targetPoint" />
          </mxGeometry>
        </mxCell>
        <mxCell id="kD8ch3ms91q4ZZ0owqxC-63" value="" style="endArrow=none;html=1;rounded=0;fillColor=#d5e8d4;strokeColor=#82b366;" parent="1" edge="1">
          <mxGeometry width="50" height="50" relative="1" as="geometry">
            <mxPoint x="120" y="220" as="sourcePoint" />
            <mxPoint x="160" y="220" as="targetPoint" />
          </mxGeometry>
        </mxCell>
        <mxCell id="kD8ch3ms91q4ZZ0owqxC-64" value="" style="endArrow=none;html=1;rounded=0;fillColor=#dae8fc;strokeColor=#6c8ebf;" parent="1" edge="1">
          <mxGeometry width="50" height="50" relative="1" as="geometry">
            <mxPoint x="100" y="250" as="sourcePoint" />
            <mxPoint x="100" y="220" as="targetPoint" />
          </mxGeometry>
        </mxCell>
        <mxCell id="kD8ch3ms91q4ZZ0owqxC-65" value="" style="endArrow=none;html=1;rounded=0;startArrow=oval;startFill=1;fillColor=#dae8fc;strokeColor=#6c8ebf;" parent="1" edge="1">
          <mxGeometry width="50" height="50" relative="1" as="geometry">
            <mxPoint x="140" y="250" as="sourcePoint" />
            <mxPoint x="140" y="220" as="targetPoint" />
          </mxGeometry>
        </mxCell>
        <mxCell id="kD8ch3ms91q4ZZ0owqxC-66" value="" style="endArrow=none;html=1;rounded=0;entryX=0.5;entryY=1;entryDx=0;entryDy=0;exitX=0;exitY=0.5;exitDx=0;exitDy=0;" parent="1" source="kD8ch3ms91q4ZZ0owqxC-61" target="kD8ch3ms91q4ZZ0owqxC-8" edge="1">
          <mxGeometry width="50" height="50" relative="1" as="geometry">
            <mxPoint x="400" y="230" as="sourcePoint" />
            <mxPoint x="450" y="180" as="targetPoint" />
          </mxGeometry>
        </mxCell>
        <mxCell id="kD8ch3ms91q4ZZ0owqxC-67" value="" style="endArrow=none;html=1;rounded=0;entryX=0.5;entryY=1;entryDx=0;entryDy=0;exitX=0;exitY=0.5;exitDx=0;exitDy=0;" parent="1" edge="1">
          <mxGeometry width="50" height="50" relative="1" as="geometry">
            <mxPoint x="99.58000000000011" y="190" as="sourcePoint" />
            <mxPoint x="99.58000000000011" y="130" as="targetPoint" />
          </mxGeometry>
        </mxCell>
        <mxCell id="kD8ch3ms91q4ZZ0owqxC-68" value="" style="triangle;whiteSpace=wrap;html=1;rotation=90;fillColor=#f8cecc;strokeColor=#b85450;" parent="1" vertex="1">
          <mxGeometry x="205" y="190" width="30" height="30" as="geometry" />
        </mxCell>
        <mxCell id="kD8ch3ms91q4ZZ0owqxC-69" value="" style="triangle;whiteSpace=wrap;html=1;rotation=90;fillColor=#d5e8d4;strokeColor=#82b366;" parent="1" vertex="1">
          <mxGeometry x="245" y="190" width="30" height="30" as="geometry" />
        </mxCell>
        <mxCell id="kD8ch3ms91q4ZZ0owqxC-70" value="" style="endArrow=none;html=1;rounded=0;fillColor=#f8cecc;strokeColor=#b85450;" parent="1" edge="1">
          <mxGeometry width="50" height="50" relative="1" as="geometry">
            <mxPoint x="200.0000000000001" y="220" as="sourcePoint" />
            <mxPoint x="240.0000000000001" y="220" as="targetPoint" />
          </mxGeometry>
        </mxCell>
        <mxCell id="kD8ch3ms91q4ZZ0owqxC-71" value="" style="endArrow=none;html=1;rounded=0;fillColor=#d5e8d4;strokeColor=#82b366;" parent="1" edge="1">
          <mxGeometry width="50" height="50" relative="1" as="geometry">
            <mxPoint x="240.0000000000001" y="220" as="sourcePoint" />
            <mxPoint x="280.0000000000001" y="220" as="targetPoint" />
          </mxGeometry>
        </mxCell>
        <mxCell id="kD8ch3ms91q4ZZ0owqxC-72" value="" style="endArrow=none;html=1;rounded=0;startArrow=oval;startFill=1;fillColor=#dae8fc;strokeColor=#6c8ebf;" parent="1" edge="1">
          <mxGeometry width="50" height="50" relative="1" as="geometry">
            <mxPoint x="220.0000000000001" y="250" as="sourcePoint" />
            <mxPoint x="220.0000000000001" y="220" as="targetPoint" />
          </mxGeometry>
        </mxCell>
        <mxCell id="kD8ch3ms91q4ZZ0owqxC-74" value="" style="endArrow=none;html=1;rounded=0;entryX=0.5;entryY=1;entryDx=0;entryDy=0;exitX=0;exitY=0.5;exitDx=0;exitDy=0;" parent="1" source="kD8ch3ms91q4ZZ0owqxC-69" edge="1">
          <mxGeometry width="50" height="50" relative="1" as="geometry">
            <mxPoint x="520" y="230" as="sourcePoint" />
            <mxPoint x="260.0000000000001" y="130" as="targetPoint" />
          </mxGeometry>
        </mxCell>
        <mxCell id="kD8ch3ms91q4ZZ0owqxC-75" value="" style="endArrow=none;html=1;rounded=0;entryX=0.5;entryY=1;entryDx=0;entryDy=0;exitX=0;exitY=0.5;exitDx=0;exitDy=0;" parent="1" edge="1">
          <mxGeometry width="50" height="50" relative="1" as="geometry">
            <mxPoint x="219.58000000000015" y="190" as="sourcePoint" />
            <mxPoint x="219.58000000000015" y="130" as="targetPoint" />
          </mxGeometry>
        </mxCell>
        <mxCell id="kD8ch3ms91q4ZZ0owqxC-76" value="" style="triangle;whiteSpace=wrap;html=1;rotation=90;fillColor=#f8cecc;strokeColor=#b85450;" parent="1" vertex="1">
          <mxGeometry x="325" y="190" width="30" height="30" as="geometry" />
        </mxCell>
        <mxCell id="kD8ch3ms91q4ZZ0owqxC-77" value="" style="triangle;whiteSpace=wrap;html=1;rotation=90;fillColor=#d5e8d4;strokeColor=#82b366;" parent="1" vertex="1">
          <mxGeometry x="365" y="190" width="30" height="30" as="geometry" />
        </mxCell>
        <mxCell id="kD8ch3ms91q4ZZ0owqxC-78" value="" style="endArrow=none;html=1;rounded=0;fillColor=#f8cecc;strokeColor=#b85450;" parent="1" edge="1">
          <mxGeometry width="50" height="50" relative="1" as="geometry">
            <mxPoint x="320" y="220" as="sourcePoint" />
            <mxPoint x="360" y="220" as="targetPoint" />
          </mxGeometry>
        </mxCell>
        <mxCell id="kD8ch3ms91q4ZZ0owqxC-79" value="" style="endArrow=none;html=1;rounded=0;fillColor=#d5e8d4;strokeColor=#82b366;" parent="1" edge="1">
          <mxGeometry width="50" height="50" relative="1" as="geometry">
            <mxPoint x="360" y="220" as="sourcePoint" />
            <mxPoint x="400" y="220" as="targetPoint" />
          </mxGeometry>
        </mxCell>
        <mxCell id="kD8ch3ms91q4ZZ0owqxC-82" value="" style="endArrow=none;html=1;rounded=0;entryX=0.5;entryY=1;entryDx=0;entryDy=0;exitX=0;exitY=0.5;exitDx=0;exitDy=0;" parent="1" source="kD8ch3ms91q4ZZ0owqxC-77" edge="1">
          <mxGeometry width="50" height="50" relative="1" as="geometry">
            <mxPoint x="640" y="230" as="sourcePoint" />
            <mxPoint x="380" y="130" as="targetPoint" />
          </mxGeometry>
        </mxCell>
        <mxCell id="kD8ch3ms91q4ZZ0owqxC-83" value="" style="endArrow=none;html=1;rounded=0;entryX=0.5;entryY=1;entryDx=0;entryDy=0;exitX=0;exitY=0.5;exitDx=0;exitDy=0;" parent="1" edge="1">
          <mxGeometry width="50" height="50" relative="1" as="geometry">
            <mxPoint x="339.58000000000015" y="190" as="sourcePoint" />
            <mxPoint x="339.58000000000015" y="130" as="targetPoint" />
          </mxGeometry>
        </mxCell>
        <mxCell id="kD8ch3ms91q4ZZ0owqxC-84" value="" style="triangle;whiteSpace=wrap;html=1;rotation=90;fillColor=#f8cecc;strokeColor=#b85450;" parent="1" vertex="1">
          <mxGeometry x="525" y="190" width="30" height="30" as="geometry" />
        </mxCell>
        <mxCell id="kD8ch3ms91q4ZZ0owqxC-85" value="" style="triangle;whiteSpace=wrap;html=1;rotation=90;fillColor=#d5e8d4;strokeColor=#82b366;" parent="1" vertex="1">
          <mxGeometry x="565" y="190" width="30" height="30" as="geometry" />
        </mxCell>
        <mxCell id="kD8ch3ms91q4ZZ0owqxC-86" value="" style="endArrow=none;html=1;rounded=0;fillColor=#f8cecc;strokeColor=#b85450;" parent="1" edge="1">
          <mxGeometry width="50" height="50" relative="1" as="geometry">
            <mxPoint x="520" y="220" as="sourcePoint" />
            <mxPoint x="560" y="220" as="targetPoint" />
          </mxGeometry>
        </mxCell>
        <mxCell id="kD8ch3ms91q4ZZ0owqxC-87" value="" style="endArrow=none;html=1;rounded=0;fillColor=#d5e8d4;strokeColor=#82b366;" parent="1" edge="1">
          <mxGeometry width="50" height="50" relative="1" as="geometry">
            <mxPoint x="560" y="220" as="sourcePoint" />
            <mxPoint x="600" y="220" as="targetPoint" />
          </mxGeometry>
        </mxCell>
        <mxCell id="kD8ch3ms91q4ZZ0owqxC-90" value="" style="endArrow=none;html=1;rounded=0;entryX=0.5;entryY=1;entryDx=0;entryDy=0;exitX=0;exitY=0.5;exitDx=0;exitDy=0;" parent="1" source="kD8ch3ms91q4ZZ0owqxC-85" edge="1">
          <mxGeometry width="50" height="50" relative="1" as="geometry">
            <mxPoint x="840" y="230" as="sourcePoint" />
            <mxPoint x="580" y="130" as="targetPoint" />
          </mxGeometry>
        </mxCell>
        <mxCell id="kD8ch3ms91q4ZZ0owqxC-91" value="" style="endArrow=none;html=1;rounded=0;entryX=0.5;entryY=1;entryDx=0;entryDy=0;exitX=0;exitY=0.5;exitDx=0;exitDy=0;" parent="1" edge="1">
          <mxGeometry width="50" height="50" relative="1" as="geometry">
            <mxPoint x="539.5800000000002" y="190" as="sourcePoint" />
            <mxPoint x="539.5800000000002" y="130" as="targetPoint" />
          </mxGeometry>
        </mxCell>
        <mxCell id="kD8ch3ms91q4ZZ0owqxC-92" value="" style="triangle;whiteSpace=wrap;html=1;rotation=90;fillColor=#f8cecc;strokeColor=#b85450;" parent="1" vertex="1">
          <mxGeometry x="685" y="190" width="30" height="30" as="geometry" />
        </mxCell>
        <mxCell id="kD8ch3ms91q4ZZ0owqxC-93" value="" style="triangle;whiteSpace=wrap;html=1;rotation=90;fillColor=#d5e8d4;strokeColor=#82b366;" parent="1" vertex="1">
          <mxGeometry x="725" y="190" width="30" height="30" as="geometry" />
        </mxCell>
        <mxCell id="kD8ch3ms91q4ZZ0owqxC-94" value="" style="endArrow=none;html=1;rounded=0;fillColor=#f8cecc;strokeColor=#b85450;" parent="1" edge="1">
          <mxGeometry width="50" height="50" relative="1" as="geometry">
            <mxPoint x="680" y="220" as="sourcePoint" />
            <mxPoint x="720" y="220" as="targetPoint" />
          </mxGeometry>
        </mxCell>
        <mxCell id="kD8ch3ms91q4ZZ0owqxC-95" value="" style="endArrow=none;html=1;rounded=0;fillColor=#d5e8d4;strokeColor=#82b366;" parent="1" edge="1">
          <mxGeometry width="50" height="50" relative="1" as="geometry">
            <mxPoint x="720" y="220" as="sourcePoint" />
            <mxPoint x="760" y="220" as="targetPoint" />
          </mxGeometry>
        </mxCell>
        <mxCell id="kD8ch3ms91q4ZZ0owqxC-98" value="" style="endArrow=none;html=1;rounded=0;entryX=0.5;entryY=1;entryDx=0;entryDy=0;exitX=0;exitY=0.5;exitDx=0;exitDy=0;" parent="1" source="kD8ch3ms91q4ZZ0owqxC-93" edge="1">
          <mxGeometry width="50" height="50" relative="1" as="geometry">
            <mxPoint x="1000" y="230" as="sourcePoint" />
            <mxPoint x="740" y="130" as="targetPoint" />
          </mxGeometry>
        </mxCell>
        <mxCell id="kD8ch3ms91q4ZZ0owqxC-99" value="" style="endArrow=none;html=1;rounded=0;entryX=0.5;entryY=1;entryDx=0;entryDy=0;exitX=0;exitY=0.5;exitDx=0;exitDy=0;" parent="1" edge="1">
          <mxGeometry width="50" height="50" relative="1" as="geometry">
            <mxPoint x="699.5800000000002" y="190" as="sourcePoint" />
            <mxPoint x="699.5800000000002" y="130" as="targetPoint" />
          </mxGeometry>
        </mxCell>
        <mxCell id="kD8ch3ms91q4ZZ0owqxC-100" value="" style="triangle;whiteSpace=wrap;html=1;rotation=90;fillColor=#f8cecc;strokeColor=#b85450;" parent="1" vertex="1">
          <mxGeometry x="805" y="190" width="30" height="30" as="geometry" />
        </mxCell>
        <mxCell id="kD8ch3ms91q4ZZ0owqxC-101" value="" style="triangle;whiteSpace=wrap;html=1;rotation=90;fillColor=#d5e8d4;strokeColor=#82b366;" parent="1" vertex="1">
          <mxGeometry x="845" y="190" width="30" height="30" as="geometry" />
        </mxCell>
        <mxCell id="kD8ch3ms91q4ZZ0owqxC-102" value="" style="endArrow=none;html=1;rounded=0;fillColor=#f8cecc;strokeColor=#b85450;" parent="1" edge="1">
          <mxGeometry width="50" height="50" relative="1" as="geometry">
            <mxPoint x="800" y="220" as="sourcePoint" />
            <mxPoint x="840" y="220" as="targetPoint" />
          </mxGeometry>
        </mxCell>
        <mxCell id="kD8ch3ms91q4ZZ0owqxC-103" value="" style="endArrow=none;html=1;rounded=0;fillColor=#d5e8d4;strokeColor=#82b366;" parent="1" edge="1">
          <mxGeometry width="50" height="50" relative="1" as="geometry">
            <mxPoint x="840" y="220" as="sourcePoint" />
            <mxPoint x="880" y="220" as="targetPoint" />
          </mxGeometry>
        </mxCell>
        <mxCell id="kD8ch3ms91q4ZZ0owqxC-106" value="" style="endArrow=none;html=1;rounded=0;entryX=0.5;entryY=1;entryDx=0;entryDy=0;exitX=0;exitY=0.5;exitDx=0;exitDy=0;" parent="1" source="kD8ch3ms91q4ZZ0owqxC-101" edge="1">
          <mxGeometry width="50" height="50" relative="1" as="geometry">
            <mxPoint x="1120" y="230" as="sourcePoint" />
            <mxPoint x="860" y="130" as="targetPoint" />
          </mxGeometry>
        </mxCell>
        <mxCell id="kD8ch3ms91q4ZZ0owqxC-107" value="" style="endArrow=none;html=1;rounded=0;entryX=0.5;entryY=1;entryDx=0;entryDy=0;exitX=0;exitY=0.5;exitDx=0;exitDy=0;" parent="1" edge="1">
          <mxGeometry width="50" height="50" relative="1" as="geometry">
            <mxPoint x="819.5800000000002" y="190" as="sourcePoint" />
            <mxPoint x="819.5800000000002" y="130" as="targetPoint" />
          </mxGeometry>
        </mxCell>
        <mxCell id="kD8ch3ms91q4ZZ0owqxC-108" value="" style="triangle;whiteSpace=wrap;html=1;rotation=90;fillColor=#f8cecc;strokeColor=#b85450;" parent="1" vertex="1">
          <mxGeometry x="925" y="190" width="30" height="30" as="geometry" />
        </mxCell>
        <mxCell id="kD8ch3ms91q4ZZ0owqxC-109" value="" style="triangle;whiteSpace=wrap;html=1;rotation=90;fillColor=#d5e8d4;strokeColor=#82b366;" parent="1" vertex="1">
          <mxGeometry x="965" y="190" width="30" height="30" as="geometry" />
        </mxCell>
        <mxCell id="kD8ch3ms91q4ZZ0owqxC-110" value="" style="endArrow=none;html=1;rounded=0;fillColor=#f8cecc;strokeColor=#b85450;" parent="1" edge="1">
          <mxGeometry width="50" height="50" relative="1" as="geometry">
            <mxPoint x="920" y="220" as="sourcePoint" />
            <mxPoint x="960" y="220" as="targetPoint" />
          </mxGeometry>
        </mxCell>
        <mxCell id="kD8ch3ms91q4ZZ0owqxC-111" value="" style="endArrow=none;html=1;rounded=0;fillColor=#d5e8d4;strokeColor=#82b366;" parent="1" edge="1">
          <mxGeometry width="50" height="50" relative="1" as="geometry">
            <mxPoint x="960" y="220" as="sourcePoint" />
            <mxPoint x="1000" y="220" as="targetPoint" />
          </mxGeometry>
        </mxCell>
        <mxCell id="kD8ch3ms91q4ZZ0owqxC-113" value="" style="endArrow=none;html=1;rounded=0;fillColor=#dae8fc;strokeColor=#6c8ebf;" parent="1" edge="1">
          <mxGeometry width="50" height="50" relative="1" as="geometry">
            <mxPoint x="980" y="250" as="sourcePoint" />
            <mxPoint x="980" y="220" as="targetPoint" />
          </mxGeometry>
        </mxCell>
        <mxCell id="kD8ch3ms91q4ZZ0owqxC-114" value="" style="endArrow=none;html=1;rounded=0;entryX=0.5;entryY=1;entryDx=0;entryDy=0;exitX=0;exitY=0.5;exitDx=0;exitDy=0;" parent="1" source="kD8ch3ms91q4ZZ0owqxC-109" edge="1">
          <mxGeometry width="50" height="50" relative="1" as="geometry">
            <mxPoint x="1240" y="230" as="sourcePoint" />
            <mxPoint x="980" y="130" as="targetPoint" />
          </mxGeometry>
        </mxCell>
        <mxCell id="kD8ch3ms91q4ZZ0owqxC-115" value="" style="endArrow=none;html=1;rounded=0;entryX=0.5;entryY=1;entryDx=0;entryDy=0;exitX=0;exitY=0.5;exitDx=0;exitDy=0;" parent="1" edge="1">
          <mxGeometry width="50" height="50" relative="1" as="geometry">
            <mxPoint x="939.5800000000002" y="190" as="sourcePoint" />
            <mxPoint x="939.5800000000002" y="130" as="targetPoint" />
          </mxGeometry>
        </mxCell>
        <mxCell id="kD8ch3ms91q4ZZ0owqxC-116" value="" style="endArrow=none;html=1;rounded=0;fillColor=#dae8fc;strokeColor=#6c8ebf;" parent="1" edge="1">
          <mxGeometry width="50" height="50" relative="1" as="geometry">
            <mxPoint x="100" y="250" as="sourcePoint" />
            <mxPoint x="980" y="250" as="targetPoint" />
          </mxGeometry>
        </mxCell>
        <mxCell id="kD8ch3ms91q4ZZ0owqxC-120" value="" style="endArrow=none;html=1;rounded=0;startArrow=oval;startFill=1;fillColor=#dae8fc;strokeColor=#6c8ebf;" parent="1" edge="1">
          <mxGeometry width="50" height="50" relative="1" as="geometry">
            <mxPoint x="259.58" y="250" as="sourcePoint" />
            <mxPoint x="259.58" y="220" as="targetPoint" />
          </mxGeometry>
        </mxCell>
        <mxCell id="kD8ch3ms91q4ZZ0owqxC-121" value="" style="endArrow=none;html=1;rounded=0;startArrow=oval;startFill=1;fillColor=#dae8fc;strokeColor=#6c8ebf;" parent="1" edge="1">
          <mxGeometry width="50" height="50" relative="1" as="geometry">
            <mxPoint x="339.58" y="250" as="sourcePoint" />
            <mxPoint x="339.58" y="220" as="targetPoint" />
          </mxGeometry>
        </mxCell>
        <mxCell id="kD8ch3ms91q4ZZ0owqxC-122" value="" style="endArrow=none;html=1;rounded=0;startArrow=oval;startFill=1;fillColor=#dae8fc;strokeColor=#6c8ebf;" parent="1" edge="1">
          <mxGeometry width="50" height="50" relative="1" as="geometry">
            <mxPoint x="379.58000000000004" y="250" as="sourcePoint" />
            <mxPoint x="379.58000000000004" y="220" as="targetPoint" />
          </mxGeometry>
        </mxCell>
        <mxCell id="kD8ch3ms91q4ZZ0owqxC-128" value="" style="endArrow=none;html=1;rounded=0;startArrow=oval;startFill=1;fillColor=#dae8fc;strokeColor=#6c8ebf;" parent="1" edge="1">
          <mxGeometry width="50" height="50" relative="1" as="geometry">
            <mxPoint x="539.5799999999999" y="250" as="sourcePoint" />
            <mxPoint x="539.5799999999999" y="220" as="targetPoint" />
          </mxGeometry>
        </mxCell>
        <mxCell id="kD8ch3ms91q4ZZ0owqxC-129" value="" style="endArrow=none;html=1;rounded=0;startArrow=oval;startFill=1;fillColor=#dae8fc;strokeColor=#6c8ebf;" parent="1" edge="1">
          <mxGeometry width="50" height="50" relative="1" as="geometry">
            <mxPoint x="579.5799999999999" y="250" as="sourcePoint" />
            <mxPoint x="579.5799999999999" y="220" as="targetPoint" />
          </mxGeometry>
        </mxCell>
        <mxCell id="kD8ch3ms91q4ZZ0owqxC-130" value="" style="endArrow=none;html=1;rounded=0;startArrow=oval;startFill=1;fillColor=#dae8fc;strokeColor=#6c8ebf;" parent="1" edge="1">
          <mxGeometry width="50" height="50" relative="1" as="geometry">
            <mxPoint x="699.5799999999999" y="250" as="sourcePoint" />
            <mxPoint x="699.5799999999999" y="220" as="targetPoint" />
          </mxGeometry>
        </mxCell>
        <mxCell id="kD8ch3ms91q4ZZ0owqxC-131" value="" style="endArrow=none;html=1;rounded=0;startArrow=oval;startFill=1;fillColor=#dae8fc;strokeColor=#6c8ebf;" parent="1" edge="1">
          <mxGeometry width="50" height="50" relative="1" as="geometry">
            <mxPoint x="739.5799999999999" y="250" as="sourcePoint" />
            <mxPoint x="739.5799999999999" y="220" as="targetPoint" />
          </mxGeometry>
        </mxCell>
        <mxCell id="kD8ch3ms91q4ZZ0owqxC-132" value="" style="endArrow=none;html=1;rounded=0;startArrow=oval;startFill=1;fillColor=#dae8fc;strokeColor=#6c8ebf;" parent="1" edge="1">
          <mxGeometry width="50" height="50" relative="1" as="geometry">
            <mxPoint x="819.5799999999999" y="250" as="sourcePoint" />
            <mxPoint x="819.5799999999999" y="220" as="targetPoint" />
          </mxGeometry>
        </mxCell>
        <mxCell id="kD8ch3ms91q4ZZ0owqxC-133" value="" style="endArrow=none;html=1;rounded=0;startArrow=oval;startFill=1;fillColor=#dae8fc;strokeColor=#6c8ebf;" parent="1" edge="1">
          <mxGeometry width="50" height="50" relative="1" as="geometry">
            <mxPoint x="859.5799999999999" y="250" as="sourcePoint" />
            <mxPoint x="859.5799999999999" y="220" as="targetPoint" />
          </mxGeometry>
        </mxCell>
        <mxCell id="kD8ch3ms91q4ZZ0owqxC-134" value="" style="endArrow=none;html=1;rounded=0;startArrow=oval;startFill=1;fillColor=#dae8fc;strokeColor=#6c8ebf;" parent="1" edge="1">
          <mxGeometry width="50" height="50" relative="1" as="geometry">
            <mxPoint x="939.5799999999999" y="250" as="sourcePoint" />
            <mxPoint x="939.5799999999999" y="220" as="targetPoint" />
          </mxGeometry>
        </mxCell>
        <mxCell id="kD8ch3ms91q4ZZ0owqxC-136" value="" style="ellipse;whiteSpace=wrap;html=1;aspect=fixed;fillColor=#dae8fc;strokeColor=#6c8ebf;" parent="1" vertex="1">
          <mxGeometry x="410" y="10" width="20" height="20" as="geometry" />
        </mxCell>
        <mxCell id="kD8ch3ms91q4ZZ0owqxC-137" value="" style="endArrow=none;html=1;rounded=0;entryX=0.5;entryY=1;entryDx=0;entryDy=0;startArrow=oval;startFill=1;fillColor=#dae8fc;strokeColor=#6c8ebf;" parent="1" target="kD8ch3ms91q4ZZ0owqxC-136" edge="1">
          <mxGeometry width="50" height="50" relative="1" as="geometry">
            <mxPoint x="420" y="250" as="sourcePoint" />
            <mxPoint x="360" y="180" as="targetPoint" />
          </mxGeometry>
        </mxCell>
        <mxCell id="kD8ch3ms91q4ZZ0owqxC-138" value="GND" style="text;html=1;align=center;verticalAlign=middle;whiteSpace=wrap;rounded=0;fontColor=#007FFF;" parent="1" vertex="1">
          <mxGeometry x="390" y="-20" width="60" height="30" as="geometry" />
        </mxCell>
        <mxCell id="kD8ch3ms91q4ZZ0owqxC-139" value="R1" style="text;html=1;strokeColor=none;fillColor=none;align=center;verticalAlign=middle;whiteSpace=wrap;rounded=0;rotation=-90;" parent="1" vertex="1">
          <mxGeometry x="50" y="85" width="60" height="30" as="geometry" />
        </mxCell>
        <mxCell id="kD8ch3ms91q4ZZ0owqxC-140" value="R1" style="text;html=1;strokeColor=none;fillColor=none;align=center;verticalAlign=middle;whiteSpace=wrap;rounded=0;rotation=-90;" parent="1" vertex="1">
          <mxGeometry x="90" y="85" width="60" height="30" as="geometry" />
        </mxCell>
        <mxCell id="kD8ch3ms91q4ZZ0owqxC-141" value="R2" style="text;html=1;strokeColor=none;fillColor=none;align=center;verticalAlign=middle;whiteSpace=wrap;rounded=0;rotation=-90;" parent="1" vertex="1">
          <mxGeometry x="170" y="85" width="60" height="30" as="geometry" />
        </mxCell>
        <mxCell id="kD8ch3ms91q4ZZ0owqxC-142" value="R2" style="text;html=1;strokeColor=none;fillColor=none;align=center;verticalAlign=middle;whiteSpace=wrap;rounded=0;rotation=-90;" parent="1" vertex="1">
          <mxGeometry x="215" y="85" width="60" height="30" as="geometry" />
        </mxCell>
        <mxCell id="kD8ch3ms91q4ZZ0owqxC-145" value="R2" style="text;html=1;strokeColor=none;fillColor=none;align=center;verticalAlign=middle;whiteSpace=wrap;rounded=0;rotation=-90;" parent="1" vertex="1">
          <mxGeometry x="290" y="85" width="60" height="30" as="geometry" />
        </mxCell>
        <mxCell id="kD8ch3ms91q4ZZ0owqxC-146" value="R2" style="text;html=1;strokeColor=none;fillColor=none;align=center;verticalAlign=middle;whiteSpace=wrap;rounded=0;rotation=-90;" parent="1" vertex="1">
          <mxGeometry x="335" y="85" width="60" height="30" as="geometry" />
        </mxCell>
        <mxCell id="kD8ch3ms91q4ZZ0owqxC-147" value="R2" style="text;html=1;strokeColor=none;fillColor=none;align=center;verticalAlign=middle;whiteSpace=wrap;rounded=0;rotation=-90;" parent="1" vertex="1">
          <mxGeometry x="487.5" y="85" width="60" height="30" as="geometry" />
        </mxCell>
        <mxCell id="kD8ch3ms91q4ZZ0owqxC-148" value="R2" style="text;html=1;strokeColor=none;fillColor=none;align=center;verticalAlign=middle;whiteSpace=wrap;rounded=0;rotation=-90;" parent="1" vertex="1">
          <mxGeometry x="532.5" y="85" width="60" height="30" as="geometry" />
        </mxCell>
        <mxCell id="kD8ch3ms91q4ZZ0owqxC-149" value="R2" style="text;html=1;strokeColor=none;fillColor=none;align=center;verticalAlign=middle;whiteSpace=wrap;rounded=0;rotation=-90;" parent="1" vertex="1">
          <mxGeometry x="645" y="85" width="60" height="30" as="geometry" />
        </mxCell>
        <mxCell id="kD8ch3ms91q4ZZ0owqxC-150" value="R2" style="text;html=1;strokeColor=none;fillColor=none;align=center;verticalAlign=middle;whiteSpace=wrap;rounded=0;rotation=-90;" parent="1" vertex="1">
          <mxGeometry x="690" y="85" width="60" height="30" as="geometry" />
        </mxCell>
        <mxCell id="kD8ch3ms91q4ZZ0owqxC-151" value="R2" style="text;html=1;strokeColor=none;fillColor=none;align=center;verticalAlign=middle;whiteSpace=wrap;rounded=0;rotation=-90;" parent="1" vertex="1">
          <mxGeometry x="765" y="85" width="60" height="30" as="geometry" />
        </mxCell>
        <mxCell id="kD8ch3ms91q4ZZ0owqxC-152" value="R2" style="text;html=1;strokeColor=none;fillColor=none;align=center;verticalAlign=middle;whiteSpace=wrap;rounded=0;rotation=-90;" parent="1" vertex="1">
          <mxGeometry x="810" y="85" width="60" height="30" as="geometry" />
        </mxCell>
        <mxCell id="kD8ch3ms91q4ZZ0owqxC-153" value="R2" style="text;html=1;strokeColor=none;fillColor=none;align=center;verticalAlign=middle;whiteSpace=wrap;rounded=0;rotation=-90;" parent="1" vertex="1">
          <mxGeometry x="890" y="85" width="60" height="30" as="geometry" />
        </mxCell>
        <mxCell id="kD8ch3ms91q4ZZ0owqxC-154" value="R2" style="text;html=1;strokeColor=none;fillColor=none;align=center;verticalAlign=middle;whiteSpace=wrap;rounded=0;rotation=-90;" parent="1" vertex="1">
          <mxGeometry x="935" y="85" width="60" height="30" as="geometry" />
        </mxCell>
        <mxCell id="kD8ch3ms91q4ZZ0owqxC-155" value="" style="rounded=0;whiteSpace=wrap;html=1;" parent="1" vertex="1">
          <mxGeometry x="80" y="520" width="80" height="80" as="geometry" />
        </mxCell>
        <mxCell id="kD8ch3ms91q4ZZ0owqxC-156" value="" style="endArrow=none;html=1;rounded=0;entryX=0.25;entryY=1;entryDx=0;entryDy=0;" parent="1" target="kD8ch3ms91q4ZZ0owqxC-155" edge="1">
          <mxGeometry width="50" height="50" relative="1" as="geometry">
            <mxPoint x="100" y="640" as="sourcePoint" />
            <mxPoint x="480" y="440" as="targetPoint" />
          </mxGeometry>
        </mxCell>
        <mxCell id="kD8ch3ms91q4ZZ0owqxC-157" value="" style="endArrow=none;html=1;rounded=0;entryX=0.75;entryY=1;entryDx=0;entryDy=0;" parent="1" target="kD8ch3ms91q4ZZ0owqxC-155" edge="1">
          <mxGeometry width="50" height="50" relative="1" as="geometry">
            <mxPoint x="140" y="640" as="sourcePoint" />
            <mxPoint x="480" y="440" as="targetPoint" />
          </mxGeometry>
        </mxCell>
        <mxCell id="kD8ch3ms91q4ZZ0owqxC-159" value="" style="triangle;whiteSpace=wrap;html=1;" parent="1" vertex="1">
          <mxGeometry x="110" y="570" width="20" height="20" as="geometry" />
        </mxCell>
        <mxCell id="kD8ch3ms91q4ZZ0owqxC-161" value="" style="endArrow=none;html=1;rounded=0;" parent="1" edge="1">
          <mxGeometry width="50" height="50" relative="1" as="geometry">
            <mxPoint x="130" y="590" as="sourcePoint" />
            <mxPoint x="130" y="570" as="targetPoint" />
          </mxGeometry>
        </mxCell>
        <mxCell id="kD8ch3ms91q4ZZ0owqxC-162" value="" style="endArrow=none;html=1;rounded=0;entryX=0;entryY=0.5;entryDx=0;entryDy=0;" parent="1" target="kD8ch3ms91q4ZZ0owqxC-159" edge="1">
          <mxGeometry width="50" height="50" relative="1" as="geometry">
            <mxPoint x="100" y="600" as="sourcePoint" />
            <mxPoint x="220" y="560" as="targetPoint" />
            <Array as="points">
              <mxPoint x="100" y="580" />
            </Array>
          </mxGeometry>
        </mxCell>
        <mxCell id="kD8ch3ms91q4ZZ0owqxC-163" value="" style="endArrow=none;html=1;rounded=0;exitX=0.75;exitY=1;exitDx=0;exitDy=0;" parent="1" source="kD8ch3ms91q4ZZ0owqxC-155" edge="1">
          <mxGeometry width="50" height="50" relative="1" as="geometry">
            <mxPoint x="170" y="610" as="sourcePoint" />
            <mxPoint x="130" y="580" as="targetPoint" />
            <Array as="points">
              <mxPoint x="140" y="580" />
            </Array>
          </mxGeometry>
        </mxCell>
        <mxCell id="kD8ch3ms91q4ZZ0owqxC-164" value="" style="endArrow=none;html=1;rounded=0;entryX=0.75;entryY=0;entryDx=0;entryDy=0;" parent="1" target="kD8ch3ms91q4ZZ0owqxC-155" edge="1">
          <mxGeometry width="50" height="50" relative="1" as="geometry">
            <mxPoint x="140" y="480" as="sourcePoint" />
            <mxPoint x="220" y="530" as="targetPoint" />
          </mxGeometry>
        </mxCell>
        <mxCell id="kD8ch3ms91q4ZZ0owqxC-165" value="" style="endArrow=none;html=1;rounded=0;entryX=0.75;entryY=0;entryDx=0;entryDy=0;fillColor=#f8cecc;strokeColor=#b85450;" parent="1" edge="1">
          <mxGeometry width="50" height="50" relative="1" as="geometry">
            <mxPoint x="99.86" y="480.0000000000001" as="sourcePoint" />
            <mxPoint x="99.86" y="520.0000000000001" as="targetPoint" />
          </mxGeometry>
        </mxCell>
        <mxCell id="kD8ch3ms91q4ZZ0owqxC-171" value="" style="endArrow=none;html=1;rounded=0;entryX=0.75;entryY=0.25;entryDx=0;entryDy=0;entryPerimeter=0;exitX=0.25;exitY=0.25;exitDx=0;exitDy=0;exitPerimeter=0;" parent="1" source="kD8ch3ms91q4ZZ0owqxC-155" target="kD8ch3ms91q4ZZ0owqxC-155" edge="1">
          <mxGeometry width="50" height="50" relative="1" as="geometry">
            <mxPoint x="170" y="580" as="sourcePoint" />
            <mxPoint x="220" y="530" as="targetPoint" />
          </mxGeometry>
        </mxCell>
        <mxCell id="kD8ch3ms91q4ZZ0owqxC-172" value="" style="endArrow=none;html=1;rounded=0;entryX=0.25;entryY=0;entryDx=0;entryDy=0;" parent="1" target="kD8ch3ms91q4ZZ0owqxC-155" edge="1">
          <mxGeometry width="50" height="50" relative="1" as="geometry">
            <mxPoint x="110" y="540" as="sourcePoint" />
            <mxPoint x="220" y="530" as="targetPoint" />
          </mxGeometry>
        </mxCell>
        <mxCell id="kD8ch3ms91q4ZZ0owqxC-174" value="" style="endArrow=classic;html=1;rounded=0;" parent="1" target="kD8ch3ms91q4ZZ0owqxC-155" edge="1">
          <mxGeometry width="50" height="50" relative="1" as="geometry">
            <mxPoint x="130" y="540" as="sourcePoint" />
            <mxPoint x="220" y="530" as="targetPoint" />
          </mxGeometry>
        </mxCell>
        <mxCell id="kD8ch3ms91q4ZZ0owqxC-176" value="" style="ellipse;whiteSpace=wrap;html=1;aspect=fixed;" parent="1" vertex="1">
          <mxGeometry x="90" y="740" width="20" height="20" as="geometry" />
        </mxCell>
        <mxCell id="kD8ch3ms91q4ZZ0owqxC-177" value="" style="rounded=0;whiteSpace=wrap;html=1;" parent="1" vertex="1">
          <mxGeometry x="130" y="640" width="20" height="60" as="geometry" />
        </mxCell>
        <mxCell id="kD8ch3ms91q4ZZ0owqxC-180" value="" style="endArrow=none;html=1;rounded=0;exitX=0.5;exitY=0;exitDx=0;exitDy=0;" parent="1" source="kD8ch3ms91q4ZZ0owqxC-176" edge="1">
          <mxGeometry width="50" height="50" relative="1" as="geometry">
            <mxPoint x="150" y="660" as="sourcePoint" />
            <mxPoint x="100" y="640" as="targetPoint" />
          </mxGeometry>
        </mxCell>
        <mxCell id="kD8ch3ms91q4ZZ0owqxC-181" value="" style="ellipse;whiteSpace=wrap;html=1;aspect=fixed;fillColor=#dae8fc;strokeColor=#6c8ebf;" parent="1" vertex="1">
          <mxGeometry x="170" y="740" width="20" height="20" as="geometry" />
        </mxCell>
        <mxCell id="kD8ch3ms91q4ZZ0owqxC-182" value="PB0" style="text;html=1;strokeColor=none;fillColor=none;align=center;verticalAlign=middle;whiteSpace=wrap;rounded=0;" parent="1" vertex="1">
          <mxGeometry x="70" y="760" width="60" height="30" as="geometry" />
        </mxCell>
        <mxCell id="kD8ch3ms91q4ZZ0owqxC-183" value="GND" style="text;html=1;strokeColor=none;fillColor=none;align=center;verticalAlign=middle;whiteSpace=wrap;rounded=0;fontColor=#007FFF;" parent="1" vertex="1">
          <mxGeometry x="150" y="760" width="60" height="30" as="geometry" />
        </mxCell>
        <mxCell id="kD8ch3ms91q4ZZ0owqxC-184" value="" style="endArrow=none;html=1;rounded=0;exitX=0.5;exitY=0;exitDx=0;exitDy=0;fillColor=#dae8fc;strokeColor=#6c8ebf;" parent="1" source="kD8ch3ms91q4ZZ0owqxC-181" edge="1">
          <mxGeometry width="50" height="50" relative="1" as="geometry">
            <mxPoint x="150" y="660" as="sourcePoint" />
            <mxPoint x="140" y="700" as="targetPoint" />
            <Array as="points">
              <mxPoint x="180" y="710" />
              <mxPoint x="140" y="710" />
            </Array>
          </mxGeometry>
        </mxCell>
        <mxCell id="kD8ch3ms91q4ZZ0owqxC-185" value="" style="rounded=0;whiteSpace=wrap;html=1;" parent="1" vertex="1">
          <mxGeometry x="320" y="520" width="80" height="80" as="geometry" />
        </mxCell>
        <mxCell id="kD8ch3ms91q4ZZ0owqxC-186" value="" style="endArrow=none;html=1;rounded=0;entryX=0.25;entryY=1;entryDx=0;entryDy=0;exitX=0.5;exitY=0;exitDx=0;exitDy=0;" parent="1" source="kD8ch3ms91q4ZZ0owqxC-199" target="kD8ch3ms91q4ZZ0owqxC-185" edge="1">
          <mxGeometry width="50" height="50" relative="1" as="geometry">
            <mxPoint x="340.0000000000001" y="640" as="sourcePoint" />
            <mxPoint x="720" y="440" as="targetPoint" />
          </mxGeometry>
        </mxCell>
        <mxCell id="kD8ch3ms91q4ZZ0owqxC-187" value="" style="endArrow=none;html=1;rounded=0;entryX=0.75;entryY=1;entryDx=0;entryDy=0;" parent="1" target="kD8ch3ms91q4ZZ0owqxC-185" edge="1">
          <mxGeometry width="50" height="50" relative="1" as="geometry">
            <mxPoint x="380.0000000000001" y="640" as="sourcePoint" />
            <mxPoint x="720" y="440" as="targetPoint" />
          </mxGeometry>
        </mxCell>
        <mxCell id="kD8ch3ms91q4ZZ0owqxC-188" value="" style="triangle;whiteSpace=wrap;html=1;" parent="1" vertex="1">
          <mxGeometry x="350" y="570" width="20" height="20" as="geometry" />
        </mxCell>
        <mxCell id="kD8ch3ms91q4ZZ0owqxC-189" value="" style="endArrow=none;html=1;rounded=0;" parent="1" edge="1">
          <mxGeometry width="50" height="50" relative="1" as="geometry">
            <mxPoint x="370.0000000000001" y="590" as="sourcePoint" />
            <mxPoint x="370.0000000000001" y="570" as="targetPoint" />
          </mxGeometry>
        </mxCell>
        <mxCell id="kD8ch3ms91q4ZZ0owqxC-190" value="" style="endArrow=none;html=1;rounded=0;entryX=0;entryY=0.5;entryDx=0;entryDy=0;" parent="1" target="kD8ch3ms91q4ZZ0owqxC-188" edge="1">
          <mxGeometry width="50" height="50" relative="1" as="geometry">
            <mxPoint x="340.0000000000001" y="600" as="sourcePoint" />
            <mxPoint x="460" y="560" as="targetPoint" />
            <Array as="points">
              <mxPoint x="340" y="580" />
            </Array>
          </mxGeometry>
        </mxCell>
        <mxCell id="kD8ch3ms91q4ZZ0owqxC-191" value="" style="endArrow=none;html=1;rounded=0;exitX=0.75;exitY=1;exitDx=0;exitDy=0;" parent="1" source="kD8ch3ms91q4ZZ0owqxC-185" edge="1">
          <mxGeometry width="50" height="50" relative="1" as="geometry">
            <mxPoint x="410" y="610" as="sourcePoint" />
            <mxPoint x="370.0000000000001" y="580" as="targetPoint" />
            <Array as="points">
              <mxPoint x="380" y="580" />
            </Array>
          </mxGeometry>
        </mxCell>
        <mxCell id="kD8ch3ms91q4ZZ0owqxC-192" value="" style="endArrow=none;html=1;rounded=0;entryX=0.75;entryY=0;entryDx=0;entryDy=0;" parent="1" target="kD8ch3ms91q4ZZ0owqxC-185" edge="1">
          <mxGeometry width="50" height="50" relative="1" as="geometry">
            <mxPoint x="380.0000000000001" y="479.9999999999999" as="sourcePoint" />
            <mxPoint x="460" y="530" as="targetPoint" />
          </mxGeometry>
        </mxCell>
        <mxCell id="kD8ch3ms91q4ZZ0owqxC-193" value="" style="endArrow=none;html=1;rounded=0;entryX=0.75;entryY=0;entryDx=0;entryDy=0;fillColor=#f8cecc;strokeColor=#b85450;" parent="1" edge="1">
          <mxGeometry width="50" height="50" relative="1" as="geometry">
            <mxPoint x="339.86" y="480.0000000000001" as="sourcePoint" />
            <mxPoint x="339.86" y="520.0000000000001" as="targetPoint" />
          </mxGeometry>
        </mxCell>
        <mxCell id="kD8ch3ms91q4ZZ0owqxC-194" value="" style="endArrow=none;html=1;rounded=0;entryX=0.75;entryY=0.25;entryDx=0;entryDy=0;entryPerimeter=0;exitX=0.25;exitY=0.25;exitDx=0;exitDy=0;exitPerimeter=0;" parent="1" source="kD8ch3ms91q4ZZ0owqxC-185" target="kD8ch3ms91q4ZZ0owqxC-185" edge="1">
          <mxGeometry width="50" height="50" relative="1" as="geometry">
            <mxPoint x="410" y="580" as="sourcePoint" />
            <mxPoint x="460" y="530" as="targetPoint" />
          </mxGeometry>
        </mxCell>
        <mxCell id="kD8ch3ms91q4ZZ0owqxC-195" value="" style="endArrow=none;html=1;rounded=0;entryX=0.25;entryY=0;entryDx=0;entryDy=0;" parent="1" target="kD8ch3ms91q4ZZ0owqxC-185" edge="1">
          <mxGeometry width="50" height="50" relative="1" as="geometry">
            <mxPoint x="350.0000000000001" y="539.9999999999999" as="sourcePoint" />
            <mxPoint x="460" y="530" as="targetPoint" />
          </mxGeometry>
        </mxCell>
        <mxCell id="kD8ch3ms91q4ZZ0owqxC-196" value="" style="endArrow=classic;html=1;rounded=0;" parent="1" target="kD8ch3ms91q4ZZ0owqxC-185" edge="1">
          <mxGeometry width="50" height="50" relative="1" as="geometry">
            <mxPoint x="370.0000000000001" y="539.9999999999999" as="sourcePoint" />
            <mxPoint x="460" y="530" as="targetPoint" />
          </mxGeometry>
        </mxCell>
        <mxCell id="kD8ch3ms91q4ZZ0owqxC-197" value="" style="rounded=0;whiteSpace=wrap;html=1;" parent="1" vertex="1">
          <mxGeometry x="370" y="640" width="20" height="60" as="geometry" />
        </mxCell>
        <mxCell id="kD8ch3ms91q4ZZ0owqxC-198" value="" style="ellipse;whiteSpace=wrap;html=1;aspect=fixed;" parent="1" vertex="1">
          <mxGeometry x="290" y="740" width="20" height="20" as="geometry" />
        </mxCell>
        <mxCell id="kD8ch3ms91q4ZZ0owqxC-199" value="" style="ellipse;whiteSpace=wrap;html=1;aspect=fixed;" parent="1" vertex="1">
          <mxGeometry x="330" y="740" width="20" height="20" as="geometry" />
        </mxCell>
        <mxCell id="kD8ch3ms91q4ZZ0owqxC-201" value="" style="rounded=0;whiteSpace=wrap;html=1;" parent="1" vertex="1">
          <mxGeometry x="230" y="520" width="80" height="80" as="geometry" />
        </mxCell>
        <mxCell id="kD8ch3ms91q4ZZ0owqxC-202" value="" style="endArrow=none;html=1;rounded=0;entryX=0.25;entryY=1;entryDx=0;entryDy=0;exitX=0.5;exitY=0;exitDx=0;exitDy=0;" parent="1" source="kD8ch3ms91q4ZZ0owqxC-198" target="kD8ch3ms91q4ZZ0owqxC-201" edge="1">
          <mxGeometry width="50" height="50" relative="1" as="geometry">
            <mxPoint x="250" y="640" as="sourcePoint" />
            <mxPoint x="630" y="440" as="targetPoint" />
            <Array as="points">
              <mxPoint x="300" y="730" />
              <mxPoint x="250" y="730" />
            </Array>
          </mxGeometry>
        </mxCell>
        <mxCell id="kD8ch3ms91q4ZZ0owqxC-203" value="" style="endArrow=none;html=1;rounded=0;entryX=0.75;entryY=1;entryDx=0;entryDy=0;" parent="1" target="kD8ch3ms91q4ZZ0owqxC-201" edge="1">
          <mxGeometry width="50" height="50" relative="1" as="geometry">
            <mxPoint x="290" y="640" as="sourcePoint" />
            <mxPoint x="630" y="440" as="targetPoint" />
          </mxGeometry>
        </mxCell>
        <mxCell id="kD8ch3ms91q4ZZ0owqxC-204" value="" style="triangle;whiteSpace=wrap;html=1;" parent="1" vertex="1">
          <mxGeometry x="260" y="570" width="20" height="20" as="geometry" />
        </mxCell>
        <mxCell id="kD8ch3ms91q4ZZ0owqxC-205" value="" style="endArrow=none;html=1;rounded=0;" parent="1" edge="1">
          <mxGeometry width="50" height="50" relative="1" as="geometry">
            <mxPoint x="280" y="590" as="sourcePoint" />
            <mxPoint x="280" y="570" as="targetPoint" />
          </mxGeometry>
        </mxCell>
        <mxCell id="kD8ch3ms91q4ZZ0owqxC-206" value="" style="endArrow=none;html=1;rounded=0;entryX=0;entryY=0.5;entryDx=0;entryDy=0;" parent="1" target="kD8ch3ms91q4ZZ0owqxC-204" edge="1">
          <mxGeometry width="50" height="50" relative="1" as="geometry">
            <mxPoint x="250" y="600" as="sourcePoint" />
            <mxPoint x="370" y="560" as="targetPoint" />
            <Array as="points">
              <mxPoint x="250" y="580" />
            </Array>
          </mxGeometry>
        </mxCell>
        <mxCell id="kD8ch3ms91q4ZZ0owqxC-207" value="" style="endArrow=none;html=1;rounded=0;exitX=0.75;exitY=1;exitDx=0;exitDy=0;" parent="1" source="kD8ch3ms91q4ZZ0owqxC-201" edge="1">
          <mxGeometry width="50" height="50" relative="1" as="geometry">
            <mxPoint x="320" y="610" as="sourcePoint" />
            <mxPoint x="280" y="580" as="targetPoint" />
            <Array as="points">
              <mxPoint x="290" y="580" />
            </Array>
          </mxGeometry>
        </mxCell>
        <mxCell id="kD8ch3ms91q4ZZ0owqxC-208" value="" style="endArrow=none;html=1;rounded=0;entryX=0.75;entryY=0;entryDx=0;entryDy=0;" parent="1" target="kD8ch3ms91q4ZZ0owqxC-201" edge="1">
          <mxGeometry width="50" height="50" relative="1" as="geometry">
            <mxPoint x="290" y="479.9999999999999" as="sourcePoint" />
            <mxPoint x="370" y="530" as="targetPoint" />
          </mxGeometry>
        </mxCell>
        <mxCell id="kD8ch3ms91q4ZZ0owqxC-209" value="" style="endArrow=none;html=1;rounded=0;entryX=0.75;entryY=0;entryDx=0;entryDy=0;fillColor=#f8cecc;strokeColor=#b85450;" parent="1" edge="1">
          <mxGeometry width="50" height="50" relative="1" as="geometry">
            <mxPoint x="249.86000000000013" y="480.0000000000001" as="sourcePoint" />
            <mxPoint x="249.86000000000013" y="520.0000000000001" as="targetPoint" />
          </mxGeometry>
        </mxCell>
        <mxCell id="kD8ch3ms91q4ZZ0owqxC-210" value="" style="endArrow=none;html=1;rounded=0;entryX=0.75;entryY=0.25;entryDx=0;entryDy=0;entryPerimeter=0;exitX=0.25;exitY=0.25;exitDx=0;exitDy=0;exitPerimeter=0;" parent="1" source="kD8ch3ms91q4ZZ0owqxC-201" target="kD8ch3ms91q4ZZ0owqxC-201" edge="1">
          <mxGeometry width="50" height="50" relative="1" as="geometry">
            <mxPoint x="320" y="580" as="sourcePoint" />
            <mxPoint x="370" y="530" as="targetPoint" />
          </mxGeometry>
        </mxCell>
        <mxCell id="kD8ch3ms91q4ZZ0owqxC-211" value="" style="endArrow=none;html=1;rounded=0;entryX=0.25;entryY=0;entryDx=0;entryDy=0;" parent="1" target="kD8ch3ms91q4ZZ0owqxC-201" edge="1">
          <mxGeometry width="50" height="50" relative="1" as="geometry">
            <mxPoint x="260" y="539.9999999999999" as="sourcePoint" />
            <mxPoint x="370" y="530" as="targetPoint" />
          </mxGeometry>
        </mxCell>
        <mxCell id="kD8ch3ms91q4ZZ0owqxC-212" value="" style="endArrow=classic;html=1;rounded=0;" parent="1" target="kD8ch3ms91q4ZZ0owqxC-201" edge="1">
          <mxGeometry width="50" height="50" relative="1" as="geometry">
            <mxPoint x="280" y="539.9999999999999" as="sourcePoint" />
            <mxPoint x="370" y="530" as="targetPoint" />
          </mxGeometry>
        </mxCell>
        <mxCell id="kD8ch3ms91q4ZZ0owqxC-213" value="" style="rounded=0;whiteSpace=wrap;html=1;" parent="1" vertex="1">
          <mxGeometry x="280" y="640" width="20" height="60" as="geometry" />
        </mxCell>
        <mxCell id="kD8ch3ms91q4ZZ0owqxC-214" value="PD12" style="text;html=1;strokeColor=none;fillColor=none;align=center;verticalAlign=middle;whiteSpace=wrap;rounded=0;" parent="1" vertex="1">
          <mxGeometry x="270" y="760" width="60" height="30" as="geometry" />
        </mxCell>
        <mxCell id="kD8ch3ms91q4ZZ0owqxC-215" value="PD13" style="text;html=1;strokeColor=none;fillColor=none;align=center;verticalAlign=middle;whiteSpace=wrap;rounded=0;" parent="1" vertex="1">
          <mxGeometry x="310" y="760" width="60" height="30" as="geometry" />
        </mxCell>
        <mxCell id="kD8ch3ms91q4ZZ0owqxC-218" value="" style="endArrow=none;html=1;rounded=0;entryX=0.5;entryY=1;entryDx=0;entryDy=0;endFill=0;startArrow=oval;startFill=1;fillColor=#dae8fc;strokeColor=#6c8ebf;" parent="1" target="kD8ch3ms91q4ZZ0owqxC-213" edge="1">
          <mxGeometry width="50" height="50" relative="1" as="geometry">
            <mxPoint x="380" y="720" as="sourcePoint" />
            <mxPoint x="270" y="700" as="targetPoint" />
            <Array as="points">
              <mxPoint x="290" y="720" />
            </Array>
          </mxGeometry>
        </mxCell>
        <mxCell id="kD8ch3ms91q4ZZ0owqxC-220" value="" style="ellipse;whiteSpace=wrap;html=1;aspect=fixed;fillColor=#dae8fc;strokeColor=#6c8ebf;" parent="1" vertex="1">
          <mxGeometry x="370" y="740" width="20" height="20" as="geometry" />
        </mxCell>
        <mxCell id="kD8ch3ms91q4ZZ0owqxC-221" value="GND" style="text;html=1;strokeColor=none;fillColor=none;align=center;verticalAlign=middle;whiteSpace=wrap;rounded=0;" parent="1" vertex="1">
          <mxGeometry x="350" y="760" width="60" height="30" as="geometry" />
        </mxCell>
        <mxCell id="kD8ch3ms91q4ZZ0owqxC-222" value="" style="endArrow=none;html=1;rounded=0;entryX=0.5;entryY=1;entryDx=0;entryDy=0;exitX=0.5;exitY=0;exitDx=0;exitDy=0;fillColor=#dae8fc;strokeColor=#6c8ebf;" parent="1" source="kD8ch3ms91q4ZZ0owqxC-220" target="kD8ch3ms91q4ZZ0owqxC-197" edge="1">
          <mxGeometry width="50" height="50" relative="1" as="geometry">
            <mxPoint x="370" y="620" as="sourcePoint" />
            <mxPoint x="420" y="570" as="targetPoint" />
          </mxGeometry>
        </mxCell>
        <mxCell id="kD8ch3ms91q4ZZ0owqxC-223" value="" style="ellipse;whiteSpace=wrap;html=1;aspect=fixed;" parent="1" vertex="1">
          <mxGeometry x="570" y="740" width="20" height="20" as="geometry" />
        </mxCell>
        <mxCell id="kD8ch3ms91q4ZZ0owqxC-224" value="PB1" style="text;html=1;strokeColor=none;fillColor=none;align=center;verticalAlign=middle;whiteSpace=wrap;rounded=0;" parent="1" vertex="1">
          <mxGeometry x="550" y="760" width="60" height="30" as="geometry" />
        </mxCell>
        <mxCell id="kD8ch3ms91q4ZZ0owqxC-225" value="" style="rounded=0;whiteSpace=wrap;html=1;" parent="1" vertex="1">
          <mxGeometry x="560" y="520" width="80" height="80" as="geometry" />
        </mxCell>
        <mxCell id="kD8ch3ms91q4ZZ0owqxC-226" value="" style="endArrow=none;html=1;rounded=0;entryX=0.75;entryY=1;entryDx=0;entryDy=0;" parent="1" target="kD8ch3ms91q4ZZ0owqxC-225" edge="1">
          <mxGeometry width="50" height="50" relative="1" as="geometry">
            <mxPoint x="620" y="640" as="sourcePoint" />
            <mxPoint x="960" y="440" as="targetPoint" />
          </mxGeometry>
        </mxCell>
        <mxCell id="kD8ch3ms91q4ZZ0owqxC-227" value="" style="triangle;whiteSpace=wrap;html=1;" parent="1" vertex="1">
          <mxGeometry x="590" y="570" width="20" height="20" as="geometry" />
        </mxCell>
        <mxCell id="kD8ch3ms91q4ZZ0owqxC-228" value="" style="endArrow=none;html=1;rounded=0;" parent="1" edge="1">
          <mxGeometry width="50" height="50" relative="1" as="geometry">
            <mxPoint x="610" y="590" as="sourcePoint" />
            <mxPoint x="610" y="570" as="targetPoint" />
          </mxGeometry>
        </mxCell>
        <mxCell id="kD8ch3ms91q4ZZ0owqxC-229" value="" style="endArrow=none;html=1;rounded=0;entryX=0;entryY=0.5;entryDx=0;entryDy=0;" parent="1" target="kD8ch3ms91q4ZZ0owqxC-227" edge="1">
          <mxGeometry width="50" height="50" relative="1" as="geometry">
            <mxPoint x="580" y="600" as="sourcePoint" />
            <mxPoint x="700" y="560" as="targetPoint" />
            <Array as="points">
              <mxPoint x="580" y="580" />
            </Array>
          </mxGeometry>
        </mxCell>
        <mxCell id="kD8ch3ms91q4ZZ0owqxC-230" value="" style="endArrow=none;html=1;rounded=0;exitX=0.75;exitY=1;exitDx=0;exitDy=0;" parent="1" source="kD8ch3ms91q4ZZ0owqxC-225" edge="1">
          <mxGeometry width="50" height="50" relative="1" as="geometry">
            <mxPoint x="650" y="610" as="sourcePoint" />
            <mxPoint x="610" y="580" as="targetPoint" />
            <Array as="points">
              <mxPoint x="620" y="580" />
            </Array>
          </mxGeometry>
        </mxCell>
        <mxCell id="kD8ch3ms91q4ZZ0owqxC-231" value="" style="endArrow=none;html=1;rounded=0;entryX=0.75;entryY=0;entryDx=0;entryDy=0;" parent="1" target="kD8ch3ms91q4ZZ0owqxC-225" edge="1">
          <mxGeometry width="50" height="50" relative="1" as="geometry">
            <mxPoint x="620" y="479.9999999999999" as="sourcePoint" />
            <mxPoint x="700" y="530" as="targetPoint" />
          </mxGeometry>
        </mxCell>
        <mxCell id="kD8ch3ms91q4ZZ0owqxC-232" value="" style="endArrow=none;html=1;rounded=0;entryX=0.75;entryY=0;entryDx=0;entryDy=0;fillColor=#f8cecc;strokeColor=#b85450;" parent="1" edge="1">
          <mxGeometry width="50" height="50" relative="1" as="geometry">
            <mxPoint x="579.8600000000001" y="480.0000000000001" as="sourcePoint" />
            <mxPoint x="579.8600000000001" y="520.0000000000001" as="targetPoint" />
          </mxGeometry>
        </mxCell>
        <mxCell id="kD8ch3ms91q4ZZ0owqxC-233" value="" style="endArrow=none;html=1;rounded=0;entryX=0.75;entryY=0.25;entryDx=0;entryDy=0;entryPerimeter=0;exitX=0.25;exitY=0.25;exitDx=0;exitDy=0;exitPerimeter=0;" parent="1" source="kD8ch3ms91q4ZZ0owqxC-225" target="kD8ch3ms91q4ZZ0owqxC-225" edge="1">
          <mxGeometry width="50" height="50" relative="1" as="geometry">
            <mxPoint x="650" y="580" as="sourcePoint" />
            <mxPoint x="700" y="530" as="targetPoint" />
          </mxGeometry>
        </mxCell>
        <mxCell id="kD8ch3ms91q4ZZ0owqxC-234" value="" style="endArrow=none;html=1;rounded=0;entryX=0.25;entryY=0;entryDx=0;entryDy=0;" parent="1" target="kD8ch3ms91q4ZZ0owqxC-225" edge="1">
          <mxGeometry width="50" height="50" relative="1" as="geometry">
            <mxPoint x="590" y="539.9999999999999" as="sourcePoint" />
            <mxPoint x="700" y="530" as="targetPoint" />
          </mxGeometry>
        </mxCell>
        <mxCell id="kD8ch3ms91q4ZZ0owqxC-235" value="" style="endArrow=classic;html=1;rounded=0;" parent="1" target="kD8ch3ms91q4ZZ0owqxC-225" edge="1">
          <mxGeometry width="50" height="50" relative="1" as="geometry">
            <mxPoint x="610" y="539.9999999999999" as="sourcePoint" />
            <mxPoint x="700" y="530" as="targetPoint" />
          </mxGeometry>
        </mxCell>
        <mxCell id="kD8ch3ms91q4ZZ0owqxC-236" value="" style="rounded=0;whiteSpace=wrap;html=1;" parent="1" vertex="1">
          <mxGeometry x="610" y="640" width="20" height="60" as="geometry" />
        </mxCell>
        <mxCell id="kD8ch3ms91q4ZZ0owqxC-237" value="" style="endArrow=none;html=1;rounded=0;entryX=0.25;entryY=1;entryDx=0;entryDy=0;exitX=0.5;exitY=0;exitDx=0;exitDy=0;" parent="1" source="kD8ch3ms91q4ZZ0owqxC-223" target="kD8ch3ms91q4ZZ0owqxC-225" edge="1">
          <mxGeometry width="50" height="50" relative="1" as="geometry">
            <mxPoint x="540" y="620" as="sourcePoint" />
            <mxPoint x="590" y="570" as="targetPoint" />
          </mxGeometry>
        </mxCell>
        <mxCell id="kD8ch3ms91q4ZZ0owqxC-238" value="" style="ellipse;whiteSpace=wrap;html=1;aspect=fixed;fillColor=#dae8fc;strokeColor=#6c8ebf;" parent="1" vertex="1">
          <mxGeometry x="610" y="740" width="20" height="20" as="geometry" />
        </mxCell>
        <mxCell id="kD8ch3ms91q4ZZ0owqxC-239" value="GND" style="text;html=1;strokeColor=none;fillColor=none;align=center;verticalAlign=middle;whiteSpace=wrap;rounded=0;fontColor=#007FFF;" parent="1" vertex="1">
          <mxGeometry x="590" y="760" width="60" height="30" as="geometry" />
        </mxCell>
        <mxCell id="kD8ch3ms91q4ZZ0owqxC-240" value="" style="endArrow=none;html=1;rounded=0;exitX=0.5;exitY=0;exitDx=0;exitDy=0;entryX=0.5;entryY=1;entryDx=0;entryDy=0;fillColor=#dae8fc;strokeColor=#6c8ebf;" parent="1" source="kD8ch3ms91q4ZZ0owqxC-238" target="kD8ch3ms91q4ZZ0owqxC-236" edge="1">
          <mxGeometry width="50" height="50" relative="1" as="geometry">
            <mxPoint x="540" y="620" as="sourcePoint" />
            <mxPoint x="590" y="570" as="targetPoint" />
          </mxGeometry>
        </mxCell>
        <mxCell id="kD8ch3ms91q4ZZ0owqxC-241" value="" style="ellipse;whiteSpace=wrap;html=1;aspect=fixed;" parent="1" vertex="1">
          <mxGeometry x="770" y="740" width="20" height="20" as="geometry" />
        </mxCell>
        <mxCell id="kD8ch3ms91q4ZZ0owqxC-242" value="PB4" style="text;html=1;strokeColor=none;fillColor=none;align=center;verticalAlign=middle;whiteSpace=wrap;rounded=0;" parent="1" vertex="1">
          <mxGeometry x="750" y="760" width="60" height="30" as="geometry" />
        </mxCell>
        <mxCell id="kD8ch3ms91q4ZZ0owqxC-245" value="" style="ellipse;whiteSpace=wrap;html=1;aspect=fixed;" parent="1" vertex="1">
          <mxGeometry x="890" y="740" width="20" height="20" as="geometry" />
        </mxCell>
        <mxCell id="kD8ch3ms91q4ZZ0owqxC-246" value="PB5" style="text;html=1;strokeColor=none;fillColor=none;align=center;verticalAlign=middle;whiteSpace=wrap;rounded=0;" parent="1" vertex="1">
          <mxGeometry x="870" y="760" width="60" height="30" as="geometry" />
        </mxCell>
        <mxCell id="kD8ch3ms91q4ZZ0owqxC-247" value="" style="rounded=0;whiteSpace=wrap;html=1;" parent="1" vertex="1">
          <mxGeometry x="880" y="520" width="80" height="80" as="geometry" />
        </mxCell>
        <mxCell id="kD8ch3ms91q4ZZ0owqxC-248" value="" style="endArrow=none;html=1;rounded=0;entryX=0.75;entryY=1;entryDx=0;entryDy=0;" parent="1" target="kD8ch3ms91q4ZZ0owqxC-247" edge="1">
          <mxGeometry width="50" height="50" relative="1" as="geometry">
            <mxPoint x="940" y="640" as="sourcePoint" />
            <mxPoint x="1280" y="440" as="targetPoint" />
          </mxGeometry>
        </mxCell>
        <mxCell id="kD8ch3ms91q4ZZ0owqxC-249" value="" style="triangle;whiteSpace=wrap;html=1;" parent="1" vertex="1">
          <mxGeometry x="910" y="570" width="20" height="20" as="geometry" />
        </mxCell>
        <mxCell id="kD8ch3ms91q4ZZ0owqxC-250" value="" style="endArrow=none;html=1;rounded=0;" parent="1" edge="1">
          <mxGeometry width="50" height="50" relative="1" as="geometry">
            <mxPoint x="930" y="590" as="sourcePoint" />
            <mxPoint x="930" y="570" as="targetPoint" />
          </mxGeometry>
        </mxCell>
        <mxCell id="kD8ch3ms91q4ZZ0owqxC-251" value="" style="endArrow=none;html=1;rounded=0;entryX=0;entryY=0.5;entryDx=0;entryDy=0;" parent="1" target="kD8ch3ms91q4ZZ0owqxC-249" edge="1">
          <mxGeometry width="50" height="50" relative="1" as="geometry">
            <mxPoint x="900" y="600" as="sourcePoint" />
            <mxPoint x="1020" y="560" as="targetPoint" />
            <Array as="points">
              <mxPoint x="900" y="580" />
            </Array>
          </mxGeometry>
        </mxCell>
        <mxCell id="kD8ch3ms91q4ZZ0owqxC-252" value="" style="endArrow=none;html=1;rounded=0;exitX=0.75;exitY=1;exitDx=0;exitDy=0;" parent="1" source="kD8ch3ms91q4ZZ0owqxC-247" edge="1">
          <mxGeometry width="50" height="50" relative="1" as="geometry">
            <mxPoint x="970" y="610" as="sourcePoint" />
            <mxPoint x="930" y="580" as="targetPoint" />
            <Array as="points">
              <mxPoint x="940" y="580" />
            </Array>
          </mxGeometry>
        </mxCell>
        <mxCell id="kD8ch3ms91q4ZZ0owqxC-253" value="" style="endArrow=none;html=1;rounded=0;entryX=0.75;entryY=0;entryDx=0;entryDy=0;" parent="1" target="kD8ch3ms91q4ZZ0owqxC-247" edge="1">
          <mxGeometry width="50" height="50" relative="1" as="geometry">
            <mxPoint x="940" y="479.9999999999999" as="sourcePoint" />
            <mxPoint x="1020" y="530" as="targetPoint" />
          </mxGeometry>
        </mxCell>
        <mxCell id="kD8ch3ms91q4ZZ0owqxC-254" value="" style="endArrow=none;html=1;rounded=0;entryX=0.75;entryY=0;entryDx=0;entryDy=0;fillColor=#f8cecc;strokeColor=#b85450;" parent="1" edge="1">
          <mxGeometry width="50" height="50" relative="1" as="geometry">
            <mxPoint x="899.8600000000001" y="480.0000000000001" as="sourcePoint" />
            <mxPoint x="899.8600000000001" y="520.0000000000001" as="targetPoint" />
          </mxGeometry>
        </mxCell>
        <mxCell id="kD8ch3ms91q4ZZ0owqxC-255" value="" style="endArrow=none;html=1;rounded=0;entryX=0.75;entryY=0.25;entryDx=0;entryDy=0;entryPerimeter=0;exitX=0.25;exitY=0.25;exitDx=0;exitDy=0;exitPerimeter=0;" parent="1" source="kD8ch3ms91q4ZZ0owqxC-247" target="kD8ch3ms91q4ZZ0owqxC-247" edge="1">
          <mxGeometry width="50" height="50" relative="1" as="geometry">
            <mxPoint x="970" y="580" as="sourcePoint" />
            <mxPoint x="1020" y="530" as="targetPoint" />
          </mxGeometry>
        </mxCell>
        <mxCell id="kD8ch3ms91q4ZZ0owqxC-256" value="" style="endArrow=none;html=1;rounded=0;entryX=0.25;entryY=0;entryDx=0;entryDy=0;" parent="1" target="kD8ch3ms91q4ZZ0owqxC-247" edge="1">
          <mxGeometry width="50" height="50" relative="1" as="geometry">
            <mxPoint x="910" y="539.9999999999999" as="sourcePoint" />
            <mxPoint x="1020" y="530" as="targetPoint" />
          </mxGeometry>
        </mxCell>
        <mxCell id="kD8ch3ms91q4ZZ0owqxC-257" value="" style="endArrow=classic;html=1;rounded=0;" parent="1" target="kD8ch3ms91q4ZZ0owqxC-247" edge="1">
          <mxGeometry width="50" height="50" relative="1" as="geometry">
            <mxPoint x="930" y="539.9999999999999" as="sourcePoint" />
            <mxPoint x="1020" y="530" as="targetPoint" />
          </mxGeometry>
        </mxCell>
        <mxCell id="kD8ch3ms91q4ZZ0owqxC-258" value="" style="rounded=0;whiteSpace=wrap;html=1;" parent="1" vertex="1">
          <mxGeometry x="930" y="640" width="20" height="60" as="geometry" />
        </mxCell>
        <mxCell id="kD8ch3ms91q4ZZ0owqxC-259" value="" style="rounded=0;whiteSpace=wrap;html=1;" parent="1" vertex="1">
          <mxGeometry x="690" y="520" width="80" height="80" as="geometry" />
        </mxCell>
        <mxCell id="kD8ch3ms91q4ZZ0owqxC-260" value="" style="endArrow=none;html=1;rounded=0;entryX=0.75;entryY=1;entryDx=0;entryDy=0;" parent="1" target="kD8ch3ms91q4ZZ0owqxC-259" edge="1">
          <mxGeometry width="50" height="50" relative="1" as="geometry">
            <mxPoint x="750" y="640" as="sourcePoint" />
            <mxPoint x="1090" y="440" as="targetPoint" />
          </mxGeometry>
        </mxCell>
        <mxCell id="kD8ch3ms91q4ZZ0owqxC-261" value="" style="triangle;whiteSpace=wrap;html=1;" parent="1" vertex="1">
          <mxGeometry x="720" y="570" width="20" height="20" as="geometry" />
        </mxCell>
        <mxCell id="kD8ch3ms91q4ZZ0owqxC-262" value="" style="endArrow=none;html=1;rounded=0;" parent="1" edge="1">
          <mxGeometry width="50" height="50" relative="1" as="geometry">
            <mxPoint x="740" y="590" as="sourcePoint" />
            <mxPoint x="740" y="570" as="targetPoint" />
          </mxGeometry>
        </mxCell>
        <mxCell id="kD8ch3ms91q4ZZ0owqxC-263" value="" style="endArrow=none;html=1;rounded=0;entryX=0;entryY=0.5;entryDx=0;entryDy=0;" parent="1" target="kD8ch3ms91q4ZZ0owqxC-261" edge="1">
          <mxGeometry width="50" height="50" relative="1" as="geometry">
            <mxPoint x="710" y="600" as="sourcePoint" />
            <mxPoint x="830" y="560" as="targetPoint" />
            <Array as="points">
              <mxPoint x="710" y="580" />
            </Array>
          </mxGeometry>
        </mxCell>
        <mxCell id="kD8ch3ms91q4ZZ0owqxC-264" value="" style="endArrow=none;html=1;rounded=0;exitX=0.75;exitY=1;exitDx=0;exitDy=0;" parent="1" source="kD8ch3ms91q4ZZ0owqxC-259" edge="1">
          <mxGeometry width="50" height="50" relative="1" as="geometry">
            <mxPoint x="780" y="610" as="sourcePoint" />
            <mxPoint x="740" y="580" as="targetPoint" />
            <Array as="points">
              <mxPoint x="750" y="580" />
            </Array>
          </mxGeometry>
        </mxCell>
        <mxCell id="kD8ch3ms91q4ZZ0owqxC-265" value="" style="endArrow=none;html=1;rounded=0;entryX=0.75;entryY=0;entryDx=0;entryDy=0;" parent="1" target="kD8ch3ms91q4ZZ0owqxC-259" edge="1">
          <mxGeometry width="50" height="50" relative="1" as="geometry">
            <mxPoint x="750" y="479.9999999999999" as="sourcePoint" />
            <mxPoint x="830" y="530" as="targetPoint" />
          </mxGeometry>
        </mxCell>
        <mxCell id="kD8ch3ms91q4ZZ0owqxC-266" value="" style="endArrow=none;html=1;rounded=0;entryX=0.75;entryY=0;entryDx=0;entryDy=0;fillColor=#f8cecc;strokeColor=#b85450;" parent="1" edge="1">
          <mxGeometry width="50" height="50" relative="1" as="geometry">
            <mxPoint x="709.8600000000001" y="480.0000000000001" as="sourcePoint" />
            <mxPoint x="709.8600000000001" y="520.0000000000001" as="targetPoint" />
          </mxGeometry>
        </mxCell>
        <mxCell id="kD8ch3ms91q4ZZ0owqxC-267" value="" style="endArrow=none;html=1;rounded=0;entryX=0.75;entryY=0.25;entryDx=0;entryDy=0;entryPerimeter=0;exitX=0.25;exitY=0.25;exitDx=0;exitDy=0;exitPerimeter=0;" parent="1" source="kD8ch3ms91q4ZZ0owqxC-259" target="kD8ch3ms91q4ZZ0owqxC-259" edge="1">
          <mxGeometry width="50" height="50" relative="1" as="geometry">
            <mxPoint x="780" y="580" as="sourcePoint" />
            <mxPoint x="830" y="530" as="targetPoint" />
          </mxGeometry>
        </mxCell>
        <mxCell id="kD8ch3ms91q4ZZ0owqxC-268" value="" style="endArrow=none;html=1;rounded=0;entryX=0.25;entryY=0;entryDx=0;entryDy=0;" parent="1" target="kD8ch3ms91q4ZZ0owqxC-259" edge="1">
          <mxGeometry width="50" height="50" relative="1" as="geometry">
            <mxPoint x="720" y="539.9999999999999" as="sourcePoint" />
            <mxPoint x="830" y="530" as="targetPoint" />
          </mxGeometry>
        </mxCell>
        <mxCell id="kD8ch3ms91q4ZZ0owqxC-269" value="" style="endArrow=classic;html=1;rounded=0;" parent="1" target="kD8ch3ms91q4ZZ0owqxC-259" edge="1">
          <mxGeometry width="50" height="50" relative="1" as="geometry">
            <mxPoint x="740" y="539.9999999999999" as="sourcePoint" />
            <mxPoint x="830" y="530" as="targetPoint" />
          </mxGeometry>
        </mxCell>
        <mxCell id="kD8ch3ms91q4ZZ0owqxC-270" value="" style="rounded=0;whiteSpace=wrap;html=1;" parent="1" vertex="1">
          <mxGeometry x="740" y="640" width="20" height="60" as="geometry" />
        </mxCell>
        <mxCell id="kD8ch3ms91q4ZZ0owqxC-271" value="" style="endArrow=none;html=1;rounded=0;entryX=0.25;entryY=1;entryDx=0;entryDy=0;exitX=0.5;exitY=0;exitDx=0;exitDy=0;" parent="1" source="kD8ch3ms91q4ZZ0owqxC-241" target="kD8ch3ms91q4ZZ0owqxC-259" edge="1">
          <mxGeometry width="50" height="50" relative="1" as="geometry">
            <mxPoint x="680" y="770" as="sourcePoint" />
            <mxPoint x="730" y="720" as="targetPoint" />
            <Array as="points">
              <mxPoint x="780" y="730" />
              <mxPoint x="710" y="730" />
            </Array>
          </mxGeometry>
        </mxCell>
        <mxCell id="kD8ch3ms91q4ZZ0owqxC-272" value="" style="endArrow=none;html=1;rounded=0;entryX=0.25;entryY=1;entryDx=0;entryDy=0;exitX=0.5;exitY=0;exitDx=0;exitDy=0;" parent="1" source="kD8ch3ms91q4ZZ0owqxC-245" target="kD8ch3ms91q4ZZ0owqxC-247" edge="1">
          <mxGeometry width="50" height="50" relative="1" as="geometry">
            <mxPoint x="540" y="620" as="sourcePoint" />
            <mxPoint x="590" y="570" as="targetPoint" />
          </mxGeometry>
        </mxCell>
        <mxCell id="kD8ch3ms91q4ZZ0owqxC-273" value="" style="endArrow=oval;html=1;rounded=0;exitX=0.5;exitY=1;exitDx=0;exitDy=0;endFill=1;fillColor=#dae8fc;strokeColor=#6c8ebf;" parent="1" source="kD8ch3ms91q4ZZ0owqxC-270" edge="1">
          <mxGeometry width="50" height="50" relative="1" as="geometry">
            <mxPoint x="540" y="620" as="sourcePoint" />
            <mxPoint x="620" y="710" as="targetPoint" />
            <Array as="points">
              <mxPoint x="750" y="710" />
            </Array>
          </mxGeometry>
        </mxCell>
        <mxCell id="kD8ch3ms91q4ZZ0owqxC-274" value="" style="endArrow=none;html=1;rounded=0;entryX=0.5;entryY=1;entryDx=0;entryDy=0;endFill=0;startArrow=oval;startFill=1;fillColor=#dae8fc;strokeColor=#6c8ebf;" parent="1" target="kD8ch3ms91q4ZZ0owqxC-258" edge="1">
          <mxGeometry width="50" height="50" relative="1" as="geometry">
            <mxPoint x="750" y="710" as="sourcePoint" />
            <mxPoint x="590" y="570" as="targetPoint" />
            <Array as="points">
              <mxPoint x="940" y="710" />
            </Array>
          </mxGeometry>
        </mxCell>
        <mxCell id="kD8ch3ms91q4ZZ0owqxC-276" value="" style="rounded=0;whiteSpace=wrap;html=1;direction=south;" parent="1" vertex="1">
          <mxGeometry x="785" y="290" width="60" height="20" as="geometry" />
        </mxCell>
        <mxCell id="kD8ch3ms91q4ZZ0owqxC-277" value="" style="ellipse;whiteSpace=wrap;html=1;aspect=fixed;fillColor=#dae8fc;strokeColor=#6c8ebf;" parent="1" vertex="1">
          <mxGeometry x="810" y="-70" width="20" height="20" as="geometry" />
        </mxCell>
        <mxCell id="kD8ch3ms91q4ZZ0owqxC-279" value="+5V" style="text;html=1;strokeColor=none;fillColor=none;align=center;verticalAlign=middle;whiteSpace=wrap;rounded=0;fontColor=#007FFF;" parent="1" vertex="1">
          <mxGeometry x="790" y="-50" width="60" height="30" as="geometry" />
        </mxCell>
        <mxCell id="kD8ch3ms91q4ZZ0owqxC-280" value="" style="endArrow=none;html=1;rounded=0;entryX=0.5;entryY=0;entryDx=0;entryDy=0;exitX=0.5;exitY=0;exitDx=0;exitDy=0;fillColor=#dae8fc;strokeColor=#6c8ebf;" parent="1" source="kD8ch3ms91q4ZZ0owqxC-276" target="kD8ch3ms91q4ZZ0owqxC-277" edge="1">
          <mxGeometry width="50" height="50" relative="1" as="geometry">
            <mxPoint x="500" y="230" as="sourcePoint" />
            <mxPoint x="550" y="180" as="targetPoint" />
            <Array as="points">
              <mxPoint x="1040" y="300" />
              <mxPoint x="1040" y="-110" />
              <mxPoint x="820" y="-110" />
            </Array>
          </mxGeometry>
        </mxCell>
        <mxCell id="kD8ch3ms91q4ZZ0owqxC-281" value="" style="endArrow=classic;html=1;rounded=0;entryX=1;entryY=0.5;entryDx=0;entryDy=0;exitX=0.5;exitY=0;exitDx=0;exitDy=0;" parent="1" source="kD8ch3ms91q4ZZ0owqxC-283" target="kD8ch3ms91q4ZZ0owqxC-276" edge="1">
          <mxGeometry width="50" height="50" relative="1" as="geometry">
            <mxPoint x="640" y="320" as="sourcePoint" />
            <mxPoint x="550" y="290" as="targetPoint" />
            <Array as="points">
              <mxPoint x="540" y="-110" />
              <mxPoint x="640" y="-110" />
              <mxPoint x="640" y="330" />
              <mxPoint x="815" y="330" />
            </Array>
          </mxGeometry>
        </mxCell>
        <mxCell id="kD8ch3ms91q4ZZ0owqxC-282" value="" style="endArrow=oval;html=1;rounded=0;exitX=0.5;exitY=1;exitDx=0;exitDy=0;endFill=1;fillColor=#dae8fc;strokeColor=#6c8ebf;" parent="1" source="kD8ch3ms91q4ZZ0owqxC-276" edge="1">
          <mxGeometry width="50" height="50" relative="1" as="geometry">
            <mxPoint x="500" y="460" as="sourcePoint" />
            <mxPoint x="760" y="250" as="targetPoint" />
            <Array as="points">
              <mxPoint x="760" y="300" />
            </Array>
          </mxGeometry>
        </mxCell>
        <mxCell id="kD8ch3ms91q4ZZ0owqxC-283" value="" style="ellipse;whiteSpace=wrap;html=1;aspect=fixed;" parent="1" vertex="1">
          <mxGeometry x="530" y="-70" width="20" height="20" as="geometry" />
        </mxCell>
        <mxCell id="kD8ch3ms91q4ZZ0owqxC-285" value="PC3" style="text;html=1;strokeColor=none;fillColor=none;align=center;verticalAlign=middle;whiteSpace=wrap;rounded=0;" parent="1" vertex="1">
          <mxGeometry x="510" y="-50" width="60" height="30" as="geometry" />
        </mxCell>
        <mxCell id="kD8ch3ms91q4ZZ0owqxC-286" value="RV(potent)" style="text;html=1;strokeColor=none;fillColor=none;align=center;verticalAlign=middle;whiteSpace=wrap;rounded=0;" parent="1" vertex="1">
          <mxGeometry x="785" y="260" width="60" height="30" as="geometry" />
        </mxCell>
        <mxCell id="kD8ch3ms91q4ZZ0owqxC-294" value="" style="ellipse;whiteSpace=wrap;html=1;aspect=fixed;fillColor=#dae8fc;strokeColor=#6c8ebf;" parent="1" vertex="1">
          <mxGeometry x="1050" y="-180" width="20" height="20" as="geometry" />
        </mxCell>
        <mxCell id="kD8ch3ms91q4ZZ0owqxC-295" value="E5V" style="text;html=1;strokeColor=none;fillColor=none;align=center;verticalAlign=middle;whiteSpace=wrap;rounded=0;fontColor=#007FFF;" parent="1" vertex="1">
          <mxGeometry x="1030" y="-160" width="60" height="30" as="geometry" />
        </mxCell>
        <mxCell id="kD8ch3ms91q4ZZ0owqxC-296" value="" style="ellipse;whiteSpace=wrap;html=1;aspect=fixed;fillColor=#dae8fc;strokeColor=#6c8ebf;" parent="1" vertex="1">
          <mxGeometry x="1241" y="20" width="20" height="20" as="geometry" />
        </mxCell>
        <mxCell id="kD8ch3ms91q4ZZ0owqxC-297" value="" style="ellipse;whiteSpace=wrap;html=1;aspect=fixed;fillColor=#dae8fc;strokeColor=#6c8ebf;" parent="1" vertex="1">
          <mxGeometry x="1241" y="60" width="20" height="20" as="geometry" />
        </mxCell>
        <mxCell id="kD8ch3ms91q4ZZ0owqxC-299" value="+5V" style="text;html=1;strokeColor=none;fillColor=none;align=center;verticalAlign=middle;whiteSpace=wrap;rounded=0;fontColor=#007FFF;" parent="1" vertex="1">
          <mxGeometry x="1250" y="15" width="60" height="30" as="geometry" />
        </mxCell>
        <mxCell id="kD8ch3ms91q4ZZ0owqxC-300" value="GND" style="text;html=1;strokeColor=none;fillColor=none;align=center;verticalAlign=middle;whiteSpace=wrap;rounded=0;fontColor=#007FFF;" parent="1" vertex="1">
          <mxGeometry x="1250" y="55" width="60" height="30" as="geometry" />
        </mxCell>
        <mxCell id="kD8ch3ms91q4ZZ0owqxC-301" value="" style="endArrow=none;html=1;rounded=0;fontColor=#007FFF;entryX=0;entryY=0.5;entryDx=0;entryDy=0;exitX=0.5;exitY=0;exitDx=0;exitDy=0;fillColor=#dae8fc;strokeColor=#6c8ebf;" parent="1" source="kD8ch3ms91q4ZZ0owqxC-294" target="kD8ch3ms91q4ZZ0owqxC-296" edge="1">
          <mxGeometry width="50" height="50" relative="1" as="geometry">
            <mxPoint x="1200" y="100" as="sourcePoint" />
            <mxPoint x="1250" y="50" as="targetPoint" />
            <Array as="points">
              <mxPoint x="1060" y="-190" />
              <mxPoint x="1160" y="-190" />
              <mxPoint x="1160" y="30" />
            </Array>
          </mxGeometry>
        </mxCell>
        <mxCell id="kD8ch3ms91q4ZZ0owqxC-303" value="" style="endArrow=none;html=1;rounded=0;fontColor=#007FFF;entryX=0;entryY=0.5;entryDx=0;entryDy=0;endFill=0;fillColor=#dae8fc;strokeColor=#6c8ebf;startArrow=oval;startFill=1;" parent="1" target="kD8ch3ms91q4ZZ0owqxC-297" edge="1">
          <mxGeometry width="50" height="50" relative="1" as="geometry">
            <mxPoint x="980" y="250" as="sourcePoint" />
            <mxPoint x="1250" y="120" as="targetPoint" />
            <Array as="points">
              <mxPoint x="1160" y="250" />
              <mxPoint x="1160" y="70" />
            </Array>
          </mxGeometry>
        </mxCell>
        <mxCell id="kD8ch3ms91q4ZZ0owqxC-304" value="" style="rounded=0;whiteSpace=wrap;html=1;" parent="1" vertex="1">
          <mxGeometry x="740" y="420" width="20" height="60" as="geometry" />
        </mxCell>
        <mxCell id="kD8ch3ms91q4ZZ0owqxC-305" value="" style="rounded=0;whiteSpace=wrap;html=1;" parent="1" vertex="1">
          <mxGeometry x="930" y="420" width="20" height="60" as="geometry" />
        </mxCell>
        <mxCell id="kD8ch3ms91q4ZZ0owqxC-306" value="" style="rounded=0;whiteSpace=wrap;html=1;" parent="1" vertex="1">
          <mxGeometry x="610" y="420" width="20" height="60" as="geometry" />
        </mxCell>
        <mxCell id="kD8ch3ms91q4ZZ0owqxC-307" value="" style="rounded=0;whiteSpace=wrap;html=1;" parent="1" vertex="1">
          <mxGeometry x="370" y="420" width="20" height="60" as="geometry" />
        </mxCell>
        <mxCell id="kD8ch3ms91q4ZZ0owqxC-308" value="" style="rounded=0;whiteSpace=wrap;html=1;" parent="1" vertex="1">
          <mxGeometry x="280" y="420" width="20" height="60" as="geometry" />
        </mxCell>
        <mxCell id="kD8ch3ms91q4ZZ0owqxC-309" value="" style="rounded=0;whiteSpace=wrap;html=1;" parent="1" vertex="1">
          <mxGeometry x="130" y="420" width="20" height="60" as="geometry" />
        </mxCell>
        <mxCell id="kD8ch3ms91q4ZZ0owqxC-310" value="" style="endArrow=none;html=1;rounded=0;fontColor=#007FFF;fillColor=#f8cecc;strokeColor=#b85450;entryX=0;entryY=0.5;entryDx=0;entryDy=0;" parent="1" target="kD8ch3ms91q4ZZ0owqxC-311" edge="1">
          <mxGeometry width="50" height="50" relative="1" as="geometry">
            <mxPoint x="100" y="480" as="sourcePoint" />
            <mxPoint x="1150" y="360" as="targetPoint" />
            <Array as="points">
              <mxPoint x="100" y="360" />
              <mxPoint x="960" y="360" />
              <mxPoint x="960" y="340" />
            </Array>
          </mxGeometry>
        </mxCell>
        <mxCell id="kD8ch3ms91q4ZZ0owqxC-311" value="" style="ellipse;whiteSpace=wrap;html=1;aspect=fixed;fillColor=#f8cecc;strokeColor=#b85450;" parent="1" vertex="1">
          <mxGeometry x="1241" y="330" width="20" height="20" as="geometry" />
        </mxCell>
        <mxCell id="kD8ch3ms91q4ZZ0owqxC-312" value="" style="ellipse;whiteSpace=wrap;html=1;aspect=fixed;fillColor=#f8cecc;strokeColor=#b85450;" parent="1" vertex="1">
          <mxGeometry x="1241" y="370" width="20" height="20" as="geometry" />
        </mxCell>
        <mxCell id="kD8ch3ms91q4ZZ0owqxC-313" value="+5V" style="text;html=1;strokeColor=none;fillColor=none;align=center;verticalAlign=middle;whiteSpace=wrap;rounded=0;fontColor=#FF0000;" parent="1" vertex="1">
          <mxGeometry x="1250" y="325" width="60" height="30" as="geometry" />
        </mxCell>
        <mxCell id="kD8ch3ms91q4ZZ0owqxC-314" value="GND" style="text;html=1;strokeColor=none;fillColor=none;align=center;verticalAlign=middle;whiteSpace=wrap;rounded=0;fontColor=#FF3333;" parent="1" vertex="1">
          <mxGeometry x="1250" y="365" width="60" height="30" as="geometry" />
        </mxCell>
        <mxCell id="kD8ch3ms91q4ZZ0owqxC-315" value="" style="endArrow=none;html=1;rounded=0;fontColor=#FF3333;startArrow=oval;startFill=1;fillColor=#f8cecc;strokeColor=#b85450;" parent="1" edge="1">
          <mxGeometry width="50" height="50" relative="1" as="geometry">
            <mxPoint x="250" y="360" as="sourcePoint" />
            <mxPoint x="250" y="480" as="targetPoint" />
          </mxGeometry>
        </mxCell>
        <mxCell id="kD8ch3ms91q4ZZ0owqxC-316" value="" style="endArrow=none;html=1;rounded=0;fontColor=#FF3333;startArrow=oval;startFill=1;fillColor=#f8cecc;strokeColor=#b85450;" parent="1" edge="1">
          <mxGeometry width="50" height="50" relative="1" as="geometry">
            <mxPoint x="339.76" y="360" as="sourcePoint" />
            <mxPoint x="339.76" y="480" as="targetPoint" />
          </mxGeometry>
        </mxCell>
        <mxCell id="kD8ch3ms91q4ZZ0owqxC-317" value="" style="endArrow=none;html=1;rounded=0;fontColor=#FF3333;startArrow=oval;startFill=1;fillColor=#f8cecc;strokeColor=#b85450;" parent="1" edge="1">
          <mxGeometry width="50" height="50" relative="1" as="geometry">
            <mxPoint x="579.71" y="360" as="sourcePoint" />
            <mxPoint x="579.71" y="480" as="targetPoint" />
          </mxGeometry>
        </mxCell>
        <mxCell id="kD8ch3ms91q4ZZ0owqxC-318" value="" style="endArrow=none;html=1;rounded=0;fontColor=#FF3333;startArrow=oval;startFill=1;fillColor=#f8cecc;strokeColor=#b85450;" parent="1" edge="1">
          <mxGeometry width="50" height="50" relative="1" as="geometry">
            <mxPoint x="710" y="360" as="sourcePoint" />
            <mxPoint x="710" y="480" as="targetPoint" />
          </mxGeometry>
        </mxCell>
        <mxCell id="kD8ch3ms91q4ZZ0owqxC-319" value="" style="endArrow=none;html=1;rounded=0;fontColor=#FF3333;startArrow=oval;startFill=1;fillColor=#f8cecc;strokeColor=#b85450;" parent="1" edge="1">
          <mxGeometry width="50" height="50" relative="1" as="geometry">
            <mxPoint x="899.71" y="360" as="sourcePoint" />
            <mxPoint x="899.71" y="480" as="targetPoint" />
          </mxGeometry>
        </mxCell>
        <mxCell id="kD8ch3ms91q4ZZ0owqxC-320" value="" style="endArrow=none;html=1;rounded=0;fontColor=#FF3333;entryX=0;entryY=0.5;entryDx=0;entryDy=0;exitX=0.5;exitY=0;exitDx=0;exitDy=0;fillColor=#f8cecc;strokeColor=#b85450;" parent="1" source="kD8ch3ms91q4ZZ0owqxC-309" target="kD8ch3ms91q4ZZ0owqxC-312" edge="1">
          <mxGeometry width="50" height="50" relative="1" as="geometry">
            <mxPoint x="940" y="490" as="sourcePoint" />
            <mxPoint x="990" y="440" as="targetPoint" />
            <Array as="points">
              <mxPoint x="140" y="380" />
            </Array>
          </mxGeometry>
        </mxCell>
        <mxCell id="kD8ch3ms91q4ZZ0owqxC-321" value="" style="endArrow=oval;html=1;rounded=0;fontColor=#FF3333;exitX=0.5;exitY=0;exitDx=0;exitDy=0;fillColor=#f8cecc;strokeColor=#b85450;endFill=1;" parent="1" source="kD8ch3ms91q4ZZ0owqxC-308" edge="1">
          <mxGeometry width="50" height="50" relative="1" as="geometry">
            <mxPoint x="540" y="490" as="sourcePoint" />
            <mxPoint x="290" y="380" as="targetPoint" />
          </mxGeometry>
        </mxCell>
        <mxCell id="kD8ch3ms91q4ZZ0owqxC-322" value="" style="endArrow=oval;html=1;rounded=0;fontColor=#FF3333;exitX=0.5;exitY=0;exitDx=0;exitDy=0;fillColor=#f8cecc;strokeColor=#b85450;endFill=1;" parent="1" edge="1">
          <mxGeometry width="50" height="50" relative="1" as="geometry">
            <mxPoint x="379.5" y="420" as="sourcePoint" />
            <mxPoint x="379.5" y="380" as="targetPoint" />
          </mxGeometry>
        </mxCell>
        <mxCell id="kD8ch3ms91q4ZZ0owqxC-323" value="" style="endArrow=oval;html=1;rounded=0;fontColor=#FF3333;exitX=0.5;exitY=0;exitDx=0;exitDy=0;fillColor=#f8cecc;strokeColor=#b85450;endFill=1;" parent="1" edge="1">
          <mxGeometry width="50" height="50" relative="1" as="geometry">
            <mxPoint x="619.5" y="420" as="sourcePoint" />
            <mxPoint x="619.5" y="380" as="targetPoint" />
          </mxGeometry>
        </mxCell>
        <mxCell id="kD8ch3ms91q4ZZ0owqxC-324" value="" style="endArrow=oval;html=1;rounded=0;fontColor=#FF3333;exitX=0.5;exitY=0;exitDx=0;exitDy=0;fillColor=#f8cecc;strokeColor=#b85450;endFill=1;" parent="1" edge="1">
          <mxGeometry width="50" height="50" relative="1" as="geometry">
            <mxPoint x="749" y="420" as="sourcePoint" />
            <mxPoint x="749" y="380" as="targetPoint" />
          </mxGeometry>
        </mxCell>
        <mxCell id="kD8ch3ms91q4ZZ0owqxC-325" value="" style="endArrow=oval;html=1;rounded=0;fontColor=#FF3333;exitX=0.5;exitY=0;exitDx=0;exitDy=0;fillColor=#f8cecc;strokeColor=#b85450;endFill=1;" parent="1" edge="1">
          <mxGeometry width="50" height="50" relative="1" as="geometry">
            <mxPoint x="939" y="420" as="sourcePoint" />
            <mxPoint x="939" y="380" as="targetPoint" />
          </mxGeometry>
        </mxCell>
        <mxCell id="kD8ch3ms91q4ZZ0owqxC-334" value="" style="ellipse;whiteSpace=wrap;html=1;aspect=fixed;fillColor=#f8cecc;strokeColor=#b85450;" parent="1" vertex="1">
          <mxGeometry x="90" y="-160" width="20" height="20" as="geometry" />
        </mxCell>
        <mxCell id="kD8ch3ms91q4ZZ0owqxC-335" value="" style="ellipse;whiteSpace=wrap;html=1;aspect=fixed;fillColor=#f8cecc;strokeColor=#b85450;" parent="1" vertex="1">
          <mxGeometry x="130" y="-160" width="20" height="20" as="geometry" />
        </mxCell>
        <mxCell id="kD8ch3ms91q4ZZ0owqxC-336" value="+5V" style="text;html=1;strokeColor=none;fillColor=none;align=center;verticalAlign=middle;whiteSpace=wrap;rounded=0;fontColor=#FF3333;" parent="1" vertex="1">
          <mxGeometry x="70" y="-190" width="60" height="30" as="geometry" />
        </mxCell>
        <mxCell id="kD8ch3ms91q4ZZ0owqxC-337" value="GND" style="text;html=1;strokeColor=none;fillColor=none;align=center;verticalAlign=middle;whiteSpace=wrap;rounded=0;fontColor=#FF3333;" parent="1" vertex="1">
          <mxGeometry x="110" y="-190" width="60" height="30" as="geometry" />
        </mxCell>
        <mxCell id="kD8ch3ms91q4ZZ0owqxC-342" value="" style="ellipse;whiteSpace=wrap;html=1;aspect=fixed;" parent="1" vertex="1">
          <mxGeometry x="210" y="-160" width="20" height="20" as="geometry" />
        </mxCell>
        <mxCell id="kD8ch3ms91q4ZZ0owqxC-343" value="" style="ellipse;whiteSpace=wrap;html=1;aspect=fixed;" parent="1" vertex="1">
          <mxGeometry x="250" y="-160" width="20" height="20" as="geometry" />
        </mxCell>
        <mxCell id="kD8ch3ms91q4ZZ0owqxC-344" value="Serv3" style="text;html=1;strokeColor=none;fillColor=none;align=center;verticalAlign=middle;whiteSpace=wrap;rounded=0;" parent="1" vertex="1">
          <mxGeometry x="190" y="-190" width="60" height="30" as="geometry" />
        </mxCell>
        <mxCell id="kD8ch3ms91q4ZZ0owqxC-345" value="Serv2" style="text;html=1;strokeColor=none;fillColor=none;align=center;verticalAlign=middle;whiteSpace=wrap;rounded=0;" parent="1" vertex="1">
          <mxGeometry x="230" y="-190" width="60" height="30" as="geometry" />
        </mxCell>
        <mxCell id="kD8ch3ms91q4ZZ0owqxC-346" value="" style="ellipse;whiteSpace=wrap;html=1;aspect=fixed;" parent="1" vertex="1">
          <mxGeometry x="290" y="-160" width="20" height="20" as="geometry" />
        </mxCell>
        <mxCell id="kD8ch3ms91q4ZZ0owqxC-348" value="Serv1" style="text;html=1;strokeColor=none;fillColor=none;align=center;verticalAlign=middle;whiteSpace=wrap;rounded=0;" parent="1" vertex="1">
          <mxGeometry x="270" y="-190" width="60" height="30" as="geometry" />
        </mxCell>
        <mxCell id="kD8ch3ms91q4ZZ0owqxC-350" value="" style="endArrow=none;html=1;rounded=0;fontColor=#FF3333;entryX=0.5;entryY=1;entryDx=0;entryDy=0;fillColor=#f8cecc;strokeColor=#b85450;endFill=0;startArrow=oval;startFill=1;" parent="1" target="kD8ch3ms91q4ZZ0owqxC-334" edge="1">
          <mxGeometry width="50" height="50" relative="1" as="geometry">
            <mxPoint x="100" y="360" as="sourcePoint" />
            <mxPoint x="560" y="100" as="targetPoint" />
            <Array as="points">
              <mxPoint x="-60" y="360" />
              <mxPoint x="-60" y="-120" />
              <mxPoint x="100" y="-120" />
            </Array>
          </mxGeometry>
        </mxCell>
        <mxCell id="kD8ch3ms91q4ZZ0owqxC-351" value="" style="endArrow=none;html=1;rounded=0;fontColor=#FF3333;entryX=0.5;entryY=1;entryDx=0;entryDy=0;fillColor=#f8cecc;strokeColor=#b85450;startArrow=oval;startFill=1;" parent="1" target="kD8ch3ms91q4ZZ0owqxC-335" edge="1">
          <mxGeometry width="50" height="50" relative="1" as="geometry">
            <mxPoint x="140" y="380" as="sourcePoint" />
            <mxPoint x="460" y="100" as="targetPoint" />
            <Array as="points">
              <mxPoint x="-40" y="380" />
              <mxPoint x="-40" y="-100" />
              <mxPoint x="140" y="-100" />
            </Array>
          </mxGeometry>
        </mxCell>
        <mxCell id="kD8ch3ms91q4ZZ0owqxC-355" value="" style="ellipse;whiteSpace=wrap;html=1;aspect=fixed;fillColor=#f8cecc;strokeColor=#b85450;" parent="1" vertex="1">
          <mxGeometry x="1170" y="820" width="20" height="20" as="geometry" />
        </mxCell>
        <mxCell id="kD8ch3ms91q4ZZ0owqxC-356" value="" style="ellipse;whiteSpace=wrap;html=1;aspect=fixed;fillColor=#f8cecc;strokeColor=#b85450;" parent="1" vertex="1">
          <mxGeometry x="1210" y="820" width="20" height="20" as="geometry" />
        </mxCell>
        <mxCell id="kD8ch3ms91q4ZZ0owqxC-357" value="+5V" style="text;html=1;strokeColor=none;fillColor=none;align=center;verticalAlign=middle;whiteSpace=wrap;rounded=0;fontColor=#FF0000;rotation=0;" parent="1" vertex="1">
          <mxGeometry x="1150" y="840" width="60" height="30" as="geometry" />
        </mxCell>
        <mxCell id="kD8ch3ms91q4ZZ0owqxC-358" value="GND" style="text;html=1;strokeColor=none;fillColor=none;align=center;verticalAlign=middle;whiteSpace=wrap;rounded=0;fontColor=#FF3333;" parent="1" vertex="1">
          <mxGeometry x="1190" y="840" width="60" height="30" as="geometry" />
        </mxCell>
        <mxCell id="kD8ch3ms91q4ZZ0owqxC-363" value="" style="endArrow=oval;html=1;rounded=0;fontColor=#FF3333;exitX=0.5;exitY=0;exitDx=0;exitDy=0;endFill=1;fillColor=#f8cecc;strokeColor=#b85450;" parent="1" source="kD8ch3ms91q4ZZ0owqxC-356" edge="1">
          <mxGeometry width="50" height="50" relative="1" as="geometry">
            <mxPoint x="940" y="560" as="sourcePoint" />
            <mxPoint x="1220" y="380" as="targetPoint" />
          </mxGeometry>
        </mxCell>
        <mxCell id="kD8ch3ms91q4ZZ0owqxC-364" value="" style="endArrow=oval;html=1;rounded=0;fontColor=#FF3333;exitX=0.5;exitY=0;exitDx=0;exitDy=0;startArrow=none;startFill=0;endFill=1;fillColor=#f8cecc;strokeColor=#b85450;" parent="1" source="kD8ch3ms91q4ZZ0owqxC-355" edge="1">
          <mxGeometry width="50" height="50" relative="1" as="geometry">
            <mxPoint x="1139.5" y="820" as="sourcePoint" />
            <mxPoint x="1180" y="340" as="targetPoint" />
          </mxGeometry>
        </mxCell>
        <mxCell id="kD8ch3ms91q4ZZ0owqxC-365" value="" style="ellipse;whiteSpace=wrap;html=1;aspect=fixed;" parent="1" vertex="1">
          <mxGeometry x="1010" y="820" width="20" height="20" as="geometry" />
        </mxCell>
        <mxCell id="kD8ch3ms91q4ZZ0owqxC-366" value="" style="ellipse;whiteSpace=wrap;html=1;aspect=fixed;" parent="1" vertex="1">
          <mxGeometry x="1050" y="820" width="20" height="20" as="geometry" />
        </mxCell>
        <mxCell id="kD8ch3ms91q4ZZ0owqxC-367" value="Serv4" style="text;html=1;strokeColor=none;fillColor=none;align=center;verticalAlign=middle;whiteSpace=wrap;rounded=0;" parent="1" vertex="1">
          <mxGeometry x="990" y="840" width="60" height="30" as="geometry" />
        </mxCell>
        <mxCell id="kD8ch3ms91q4ZZ0owqxC-368" value="Serv5" style="text;html=1;strokeColor=none;fillColor=none;align=center;verticalAlign=middle;whiteSpace=wrap;rounded=0;" parent="1" vertex="1">
          <mxGeometry x="1030" y="840" width="60" height="30" as="geometry" />
        </mxCell>
        <mxCell id="kD8ch3ms91q4ZZ0owqxC-369" value="" style="ellipse;whiteSpace=wrap;html=1;aspect=fixed;" parent="1" vertex="1">
          <mxGeometry x="1090" y="820" width="20" height="20" as="geometry" />
        </mxCell>
        <mxCell id="kD8ch3ms91q4ZZ0owqxC-370" value="Serv6" style="text;html=1;strokeColor=none;fillColor=none;align=center;verticalAlign=middle;whiteSpace=wrap;rounded=0;" parent="1" vertex="1">
          <mxGeometry x="1070" y="840" width="60" height="30" as="geometry" />
        </mxCell>
        <mxCell id="kD8ch3ms91q4ZZ0owqxC-381" value="R3" style="text;html=1;strokeColor=none;fillColor=none;align=center;verticalAlign=middle;whiteSpace=wrap;rounded=0;fontColor=#000000;rotation=-90;" parent="1" vertex="1">
          <mxGeometry x="85" y="435" width="60" height="30" as="geometry" />
        </mxCell>
        <mxCell id="kD8ch3ms91q4ZZ0owqxC-382" value="R3" style="text;html=1;strokeColor=none;fillColor=none;align=center;verticalAlign=middle;whiteSpace=wrap;rounded=0;fontColor=#000000;rotation=-90;" parent="1" vertex="1">
          <mxGeometry x="240" y="435" width="60" height="30" as="geometry" />
        </mxCell>
        <mxCell id="kD8ch3ms91q4ZZ0owqxC-383" value="R3" style="text;html=1;strokeColor=none;fillColor=none;align=center;verticalAlign=middle;whiteSpace=wrap;rounded=0;fontColor=#000000;rotation=-90;" parent="1" vertex="1">
          <mxGeometry x="565" y="435" width="60" height="30" as="geometry" />
        </mxCell>
        <mxCell id="kD8ch3ms91q4ZZ0owqxC-384" value="R3" style="text;html=1;strokeColor=none;fillColor=none;align=center;verticalAlign=middle;whiteSpace=wrap;rounded=0;fontColor=#000000;rotation=-90;" parent="1" vertex="1">
          <mxGeometry x="330" y="435" width="60" height="30" as="geometry" />
        </mxCell>
        <mxCell id="kD8ch3ms91q4ZZ0owqxC-386" value="R3" style="text;html=1;strokeColor=none;fillColor=none;align=center;verticalAlign=middle;whiteSpace=wrap;rounded=0;fontColor=#000000;rotation=-90;" parent="1" vertex="1">
          <mxGeometry x="695" y="435" width="60" height="30" as="geometry" />
        </mxCell>
        <mxCell id="kD8ch3ms91q4ZZ0owqxC-387" value="R3" style="text;html=1;strokeColor=none;fillColor=none;align=center;verticalAlign=middle;whiteSpace=wrap;rounded=0;fontColor=#000000;rotation=-90;" parent="1" vertex="1">
          <mxGeometry x="890" y="435" width="60" height="30" as="geometry" />
        </mxCell>
        <mxCell id="kD8ch3ms91q4ZZ0owqxC-388" value="R4" style="text;html=1;strokeColor=none;fillColor=none;align=center;verticalAlign=middle;whiteSpace=wrap;rounded=0;fontColor=#000000;rotation=-90;" parent="1" vertex="1">
          <mxGeometry x="85" y="655" width="60" height="30" as="geometry" />
        </mxCell>
        <mxCell id="kD8ch3ms91q4ZZ0owqxC-390" value="R4" style="text;html=1;strokeColor=none;fillColor=none;align=center;verticalAlign=middle;whiteSpace=wrap;rounded=0;fontColor=#000000;rotation=-90;" parent="1" vertex="1">
          <mxGeometry x="240" y="655" width="60" height="30" as="geometry" />
        </mxCell>
        <mxCell id="kD8ch3ms91q4ZZ0owqxC-391" value="R4" style="text;html=1;strokeColor=none;fillColor=none;align=center;verticalAlign=middle;whiteSpace=wrap;rounded=0;fontColor=#000000;rotation=-90;" parent="1" vertex="1">
          <mxGeometry x="325" y="655" width="60" height="30" as="geometry" />
        </mxCell>
        <mxCell id="kD8ch3ms91q4ZZ0owqxC-392" value="R4" style="text;html=1;strokeColor=none;fillColor=none;align=center;verticalAlign=middle;whiteSpace=wrap;rounded=0;fontColor=#000000;rotation=-90;" parent="1" vertex="1">
          <mxGeometry x="565" y="655" width="60" height="30" as="geometry" />
        </mxCell>
        <mxCell id="kD8ch3ms91q4ZZ0owqxC-393" value="R4" style="text;html=1;strokeColor=none;fillColor=none;align=center;verticalAlign=middle;whiteSpace=wrap;rounded=0;fontColor=#000000;rotation=-90;" parent="1" vertex="1">
          <mxGeometry x="695" y="655" width="60" height="30" as="geometry" />
        </mxCell>
        <mxCell id="kD8ch3ms91q4ZZ0owqxC-394" value="R4" style="text;html=1;strokeColor=none;fillColor=none;align=center;verticalAlign=middle;whiteSpace=wrap;rounded=0;fontColor=#000000;rotation=-90;" parent="1" vertex="1">
          <mxGeometry x="890" y="655" width="60" height="30" as="geometry" />
        </mxCell>
        <mxCell id="kD8ch3ms91q4ZZ0owqxC-395" value="1st(e)" style="text;html=1;strokeColor=none;fillColor=none;align=center;verticalAlign=middle;whiteSpace=wrap;rounded=0;fontColor=#000000;" parent="1" vertex="1">
          <mxGeometry x="980" y="150" width="60" height="30" as="geometry" />
        </mxCell>
        <mxCell id="kD8ch3ms91q4ZZ0owqxC-396" value="2nd(B)" style="text;html=1;strokeColor=none;fillColor=none;align=center;verticalAlign=middle;whiteSpace=wrap;rounded=0;fontColor=#000000;" parent="1" vertex="1">
          <mxGeometry x="860" y="150" width="60" height="30" as="geometry" />
        </mxCell>
        <mxCell id="kD8ch3ms91q4ZZ0owqxC-397" value="3rd(G)" style="text;html=1;strokeColor=none;fillColor=none;align=center;verticalAlign=middle;whiteSpace=wrap;rounded=0;fontColor=#000000;" parent="1" vertex="1">
          <mxGeometry x="730" y="150" width="60" height="30" as="geometry" />
        </mxCell>
        <mxCell id="kD8ch3ms91q4ZZ0owqxC-398" value="4th(D)" style="text;html=1;strokeColor=none;fillColor=none;align=center;verticalAlign=middle;whiteSpace=wrap;rounded=0;fontColor=#000000;" parent="1" vertex="1">
          <mxGeometry x="580" y="150" width="60" height="30" as="geometry" />
        </mxCell>
        <mxCell id="kD8ch3ms91q4ZZ0owqxC-399" value="6th(E)" style="text;html=1;strokeColor=none;fillColor=none;align=center;verticalAlign=middle;whiteSpace=wrap;rounded=0;fontColor=#000000;" parent="1" vertex="1">
          <mxGeometry x="260" y="150" width="60" height="30" as="geometry" />
        </mxCell>
        <mxCell id="kD8ch3ms91q4ZZ0owqxC-400" value="5th(A)" style="text;html=1;strokeColor=none;fillColor=none;align=center;verticalAlign=middle;whiteSpace=wrap;rounded=0;fontColor=#000000;" parent="1" vertex="1">
          <mxGeometry x="370" y="150" width="60" height="30" as="geometry" />
        </mxCell>
        <mxCell id="kD8ch3ms91q4ZZ0owqxC-401" value="Six" style="text;html=1;align=center;verticalAlign=middle;resizable=0;points=[];autosize=1;strokeColor=none;fillColor=none;fontColor=#000000;" parent="1" vertex="1">
          <mxGeometry x="140" y="160" width="40" height="30" as="geometry" />
        </mxCell>
        <mxCell id="kD8ch3ms91q4ZZ0owqxC-402" value="One" style="text;html=1;strokeColor=none;fillColor=none;align=center;verticalAlign=middle;whiteSpace=wrap;rounded=0;fontColor=#000000;" parent="1" vertex="1">
          <mxGeometry x="40" y="160" width="60" height="30" as="geometry" />
        </mxCell>
        <mxCell id="Voc2B-4XrgaRUvlKL8cl-3" value="" style="ellipse;whiteSpace=wrap;html=1;aspect=fixed;" vertex="1" parent="1">
          <mxGeometry x="995" y="490" width="20" height="20" as="geometry" />
        </mxCell>
        <mxCell id="Voc2B-4XrgaRUvlKL8cl-4" value="" style="ellipse;whiteSpace=wrap;html=1;aspect=fixed;" vertex="1" parent="1">
          <mxGeometry x="800" y="490" width="20" height="20" as="geometry" />
        </mxCell>
        <mxCell id="Voc2B-4XrgaRUvlKL8cl-6" value="" style="ellipse;whiteSpace=wrap;html=1;aspect=fixed;" vertex="1" parent="1">
          <mxGeometry x="660" y="490" width="20" height="20" as="geometry" />
        </mxCell>
        <mxCell id="Voc2B-4XrgaRUvlKL8cl-7" value="" style="ellipse;whiteSpace=wrap;html=1;aspect=fixed;" vertex="1" parent="1">
          <mxGeometry x="414" y="490" width="20" height="20" as="geometry" />
        </mxCell>
        <mxCell id="Voc2B-4XrgaRUvlKL8cl-8" value="" style="ellipse;whiteSpace=wrap;html=1;aspect=fixed;" vertex="1" parent="1">
          <mxGeometry x="310" y="490" width="20" height="20" as="geometry" />
        </mxCell>
        <mxCell id="Voc2B-4XrgaRUvlKL8cl-9" value="" style="ellipse;whiteSpace=wrap;html=1;aspect=fixed;" vertex="1" parent="1">
          <mxGeometry x="180" y="490" width="20" height="20" as="geometry" />
        </mxCell>
        <mxCell id="Voc2B-4XrgaRUvlKL8cl-10" value="" style="endArrow=oval;html=1;rounded=0;exitX=0;exitY=0.5;exitDx=0;exitDy=0;endFill=1;" edge="1" parent="1" source="Voc2B-4XrgaRUvlKL8cl-7">
          <mxGeometry width="50" height="50" relative="1" as="geometry">
            <mxPoint x="460" y="520" as="sourcePoint" />
            <mxPoint x="380" y="500" as="targetPoint" />
          </mxGeometry>
        </mxCell>
        <mxCell id="Voc2B-4XrgaRUvlKL8cl-11" value="" style="endArrow=oval;html=1;rounded=0;exitX=0;exitY=0.5;exitDx=0;exitDy=0;endFill=1;" edge="1" parent="1" source="Voc2B-4XrgaRUvlKL8cl-8">
          <mxGeometry width="50" height="50" relative="1" as="geometry">
            <mxPoint x="424" y="510" as="sourcePoint" />
            <mxPoint x="290" y="500" as="targetPoint" />
          </mxGeometry>
        </mxCell>
        <mxCell id="Voc2B-4XrgaRUvlKL8cl-12" value="" style="endArrow=oval;html=1;rounded=0;exitX=0;exitY=0.5;exitDx=0;exitDy=0;endFill=1;" edge="1" parent="1" source="Voc2B-4XrgaRUvlKL8cl-9">
          <mxGeometry width="50" height="50" relative="1" as="geometry">
            <mxPoint x="320" y="510" as="sourcePoint" />
            <mxPoint x="140" y="500" as="targetPoint" />
          </mxGeometry>
        </mxCell>
        <mxCell id="Voc2B-4XrgaRUvlKL8cl-13" value="" style="endArrow=oval;html=1;rounded=0;exitX=0;exitY=0.5;exitDx=0;exitDy=0;endFill=1;" edge="1" parent="1" source="Voc2B-4XrgaRUvlKL8cl-6">
          <mxGeometry width="50" height="50" relative="1" as="geometry">
            <mxPoint x="190" y="510" as="sourcePoint" />
            <mxPoint x="620" y="500" as="targetPoint" />
          </mxGeometry>
        </mxCell>
        <mxCell id="Voc2B-4XrgaRUvlKL8cl-14" value="" style="endArrow=oval;html=1;rounded=0;exitX=0;exitY=0.5;exitDx=0;exitDy=0;endFill=1;" edge="1" parent="1" source="Voc2B-4XrgaRUvlKL8cl-4">
          <mxGeometry width="50" height="50" relative="1" as="geometry">
            <mxPoint x="670" y="510" as="sourcePoint" />
            <mxPoint x="750" y="500" as="targetPoint" />
          </mxGeometry>
        </mxCell>
        <mxCell id="Voc2B-4XrgaRUvlKL8cl-15" value="" style="endArrow=oval;html=1;rounded=0;exitX=0;exitY=0.5;exitDx=0;exitDy=0;endFill=1;" edge="1" parent="1" source="Voc2B-4XrgaRUvlKL8cl-3">
          <mxGeometry width="50" height="50" relative="1" as="geometry">
            <mxPoint x="810" y="510" as="sourcePoint" />
            <mxPoint x="940" y="500" as="targetPoint" />
          </mxGeometry>
        </mxCell>
        <mxCell id="Voc2B-4XrgaRUvlKL8cl-16" value="Serv1" style="text;html=1;strokeColor=none;fillColor=none;align=center;verticalAlign=middle;whiteSpace=wrap;rounded=0;" vertex="1" parent="1">
          <mxGeometry x="780" y="460" width="60" height="30" as="geometry" />
        </mxCell>
        <mxCell id="Voc2B-4XrgaRUvlKL8cl-17" value="Serv2" style="text;html=1;strokeColor=none;fillColor=none;align=center;verticalAlign=middle;whiteSpace=wrap;rounded=0;" vertex="1" parent="1">
          <mxGeometry x="980" y="460" width="60" height="30" as="geometry" />
        </mxCell>
        <mxCell id="Voc2B-4XrgaRUvlKL8cl-18" value="Serv3" style="text;html=1;strokeColor=none;fillColor=none;align=center;verticalAlign=middle;whiteSpace=wrap;rounded=0;" vertex="1" parent="1">
          <mxGeometry x="160" y="460" width="60" height="30" as="geometry" />
        </mxCell>
        <mxCell id="Voc2B-4XrgaRUvlKL8cl-19" value="Serv5" style="text;html=1;strokeColor=none;fillColor=none;align=center;verticalAlign=middle;whiteSpace=wrap;rounded=0;" vertex="1" parent="1">
          <mxGeometry x="290" y="460" width="60" height="30" as="geometry" />
        </mxCell>
        <mxCell id="Voc2B-4XrgaRUvlKL8cl-20" value="Serv6" style="text;html=1;strokeColor=none;fillColor=none;align=center;verticalAlign=middle;whiteSpace=wrap;rounded=0;" vertex="1" parent="1">
          <mxGeometry x="394" y="460" width="60" height="30" as="geometry" />
        </mxCell>
        <mxCell id="Voc2B-4XrgaRUvlKL8cl-21" value="Serv4" style="text;html=1;strokeColor=none;fillColor=none;align=center;verticalAlign=middle;whiteSpace=wrap;rounded=0;" vertex="1" parent="1">
          <mxGeometry x="645" y="460" width="60" height="30" as="geometry" />
        </mxCell>
      </root>
    </mxGraphModel>
  </diagram>
</mxfile>
